<?xml version="1.0" encoding="UTF-8" standalone="no"?>
<!DOCTYPE svg PUBLIC "-//W3C//DTD SVG 1.1//EN"
 "http://www.w3.org/Graphics/SVG/1.1/DTD/svg11.dtd">
<!-- Generated by graphviz version 2.40.1 (20161225.0304)
 -->
<!-- Title: dependencies Pages: 1 -->
<svg width="916pt" height="211pt"
 viewBox="0.00 0.00 916.00 211.00" xmlns="http://www.w3.org/2000/svg" xmlns:xlink="http://www.w3.org/1999/xlink">
<g id="graph0" class="graph" transform="scale(1 1) rotate(0) translate(4 207)">
<title>dependencies</title>
<polygon fill="#ffffff" stroke="transparent" points="-4,4 -4,-207 912,-207 912,4 -4,4"/>
<text text-anchor="start" x="433.0091" y="-42.4" font-family="sans-serif" font-weight="bold" font-size="14.00" fill="#000000">Legend</text>
<polygon fill="#ffffb3" stroke="transparent" points="220,-10 220,-30 240,-30 240,-10 220,-10"/>
<text text-anchor="start" x="243.629" y="-15.4" font-family="sans-serif" font-size="14.00" fill="#000000"> &#160;Declarations</text>
<polygon fill="#8dd3c7" stroke="transparent" points="333,-10 333,-30 353,-30 353,-10 333,-10"/>
<text text-anchor="start" x="356.7251" y="-15.4" font-family="sans-serif" font-size="14.00" fill="#000000"> &#160;Module</text>
<polygon fill="#80b1d3" stroke="transparent" points="419,-10 419,-30 439,-30 439,-10 419,-10"/>
<text text-anchor="start" x="442.7812" y="-15.4" font-family="sans-serif" font-size="14.00" fill="#000000"> &#160;Bootstrap</text>
<polygon fill="#fdb462" stroke="transparent" points="516,-10 516,-30 536,-30 536,-10 516,-10"/>
<text text-anchor="start" x="539.6732" y="-15.4" font-family="sans-serif" font-size="14.00" fill="#000000"> &#160;Providers</text>
<polygon fill="#fb8072" stroke="transparent" points="612,-10 612,-30 632,-30 632,-10 612,-10"/>
<text text-anchor="start" x="635.7258" y="-15.4" font-family="sans-serif" font-size="14.00" fill="#000000"> &#160;Exports</text>
<g id="clust1" class="cluster">
<title>cluster_JourneySearchModule</title>
<polygon fill="none" stroke="#000000" stroke-dasharray="1,5" points="8,-70 8,-195 900,-195 900,-70 8,-70"/>
</g>
<g id="clust2" class="cluster">
<title>cluster_JourneySearchModule_declarations</title>
<polygon fill="none" stroke="#000000" points="500,-78 500,-130 892,-130 892,-78 500,-78"/>
</g>
<g id="clust5" class="cluster">
<title>cluster_JourneySearchModule_imports</title>
<polygon fill="none" stroke="#000000" points="16,-78 16,-130 492,-130 492,-78 16,-78"/>
</g>
<!-- JourneySearchComponent -->
<g id="node1" class="node">
<title>JourneySearchComponent</title>
<polygon fill="#ffffb3" stroke="#000000" points="883.7394,-122 720.2606,-122 720.2606,-86 883.7394,-86 883.7394,-122"/>
<text text-anchor="middle" x="802" y="-99.8" font-family="Times,serif" font-size="14.00" fill="#000000">JourneySearchComponent</text>
</g>
<!-- JourneySearchModule -->
<g id="node3" class="node">
<title>JourneySearchModule</title>
<polygon fill="#8dd3c7" stroke="#000000" points="436.9566,-187 433.9566,-191 412.9566,-191 409.9566,-187 295.0434,-187 295.0434,-151 436.9566,-151 436.9566,-187"/>
<text text-anchor="middle" x="366" y="-164.8" font-family="Times,serif" font-size="14.00" fill="#000000">JourneySearchModule</text>
</g>
<!-- JourneySearchComponent&#45;&gt;JourneySearchModule -->
<g id="edge1" class="edge">
<title>JourneySearchComponent&#45;&gt;JourneySearchModule</title>
<path fill="none" stroke="#000000" d="M802,-122.2843C802,-143.3211 802,-175 802,-175 802,-175 447.0213,-175 447.0213,-175"/>
<polygon fill="#000000" stroke="#000000" points="447.0213,-171.5001 437.0213,-175 447.0213,-178.5001 447.0213,-171.5001"/>
</g>
<!-- JourneySearchFormComponent -->
<g id="node2" class="node">
<title>JourneySearchFormComponent</title>
<polygon fill="#ffffb3" stroke="#000000" points="702.073,-122 507.927,-122 507.927,-86 702.073,-86 702.073,-122"/>
<text text-anchor="middle" x="605" y="-99.8" font-family="Times,serif" font-size="14.00" fill="#000000">JourneySearchFormComponent</text>
</g>
<!-- JourneySearchFormComponent&#45;&gt;JourneySearchModule -->
<g id="edge2" class="edge">
<title>JourneySearchFormComponent&#45;&gt;JourneySearchModule</title>
<path fill="none" stroke="#000000" d="M605,-122.0225C605,-139.3734 605,-163 605,-163 605,-163 447.0608,-163 447.0608,-163"/>
<polygon fill="#000000" stroke="#000000" points="447.0608,-159.5001 437.0608,-163 447.0608,-166.5001 447.0608,-159.5001"/>
</g>
<!-- CommonModule -->
<g id="node4" class="node">
<title>CommonModule</title>
<polygon fill="#8dd3c7" stroke="#000000" points="483.6681,-122 480.6681,-126 459.6681,-126 456.6681,-122 372.3319,-122 372.3319,-86 483.6681,-86 483.6681,-122"/>
<text text-anchor="middle" x="428" y="-99.8" font-family="Times,serif" font-size="14.00" fill="#000000">CommonModule</text>
</g>
<!-- CommonModule&#45;&gt;JourneySearchModule -->
<g id="edge3" class="edge">
<title>CommonModule&#45;&gt;JourneySearchModule</title>
<path fill="none" stroke="#000000" d="M404.5723,-122.1061C404.5723,-122.1061 404.5723,-140.991 404.5723,-140.991"/>
<polygon fill="#000000" stroke="#000000" points="401.0723,-140.9909 404.5723,-150.991 408.0723,-140.991 401.0723,-140.9909"/>
</g>
<!-- SharedModule -->
<g id="node5" class="node">
<title>SharedModule</title>
<polygon fill="#8dd3c7" stroke="#000000" points="354.4231,-122 351.4231,-126 330.4231,-126 327.4231,-122 255.5769,-122 255.5769,-86 354.4231,-86 354.4231,-122"/>
<text text-anchor="middle" x="305" y="-99.8" font-family="Times,serif" font-size="14.00" fill="#000000">SharedModule</text>
</g>
<!-- SharedModule&#45;&gt;JourneySearchModule -->
<g id="edge4" class="edge">
<title>SharedModule&#45;&gt;JourneySearchModule</title>
<path fill="none" stroke="#000000" d="M324.6164,-122.1061C324.6164,-122.1061 324.6164,-140.991 324.6164,-140.991"/>
<polygon fill="#000000" stroke="#000000" points="321.1165,-140.9909 324.6164,-150.991 328.1165,-140.991 321.1165,-140.9909"/>
</g>
<!-- ...modules -->
<g id="node6" class="node">
<title>...modules</title>
<polygon fill="#8dd3c7" stroke="#000000" points="237.9404,-122 234.9404,-126 213.9404,-126 210.9404,-122 164.0596,-122 164.0596,-86 237.9404,-86 237.9404,-122"/>
<text text-anchor="middle" x="201" y="-99.8" font-family="Times,serif" font-size="14.00" fill="#000000">...modules</text>
</g>
<!-- ...modules&#45;&gt;JourneySearchModule -->
<g id="edge5" class="edge">
<title>...modules&#45;&gt;JourneySearchModule</title>
<path fill="none" stroke="#000000" d="M201,-122.0225C201,-139.3734 201,-163 201,-163 201,-163 284.5882,-163 284.5882,-163"/>
<polygon fill="#000000" stroke="#000000" points="284.5883,-166.5001 294.5882,-163 284.5882,-159.5001 284.5883,-166.5001"/>
</g>
<!-- ...materialModules -->
<g id="node7" class="node">
<title>...materialModules</title>
<polygon fill="#8dd3c7" stroke="#000000" points="145.8617,-122 142.8617,-126 121.8617,-126 118.8617,-122 24.1383,-122 24.1383,-86 145.8617,-86 145.8617,-122"/>
<text text-anchor="middle" x="85" y="-99.8" font-family="Times,serif" font-size="14.00" fill="#000000">...materialModules</text>
</g>
<!-- ...materialModules&#45;&gt;JourneySearchModule -->
<g id="edge6" class="edge">
<title>...materialModules&#45;&gt;JourneySearchModule</title>
<path fill="none" stroke="#000000" d="M85,-122.2843C85,-143.3211 85,-175 85,-175 85,-175 284.7286,-175 284.7286,-175"/>
<polygon fill="#000000" stroke="#000000" points="284.7286,-178.5001 294.7286,-175 284.7285,-171.5001 284.7286,-178.5001"/>
</g>
</g>
</svg>
