<?xml version="1.0" encoding="UTF-8" standalone="no"?>
<!DOCTYPE svg PUBLIC "-//W3C//DTD SVG 1.1//EN"
 "http://www.w3.org/Graphics/SVG/1.1/DTD/svg11.dtd">
<!-- Generated by graphviz version 2.40.1 (20161225.0304)
 -->
<!-- Title: dependencies Pages: 1 -->
<svg width="504pt" height="211pt"
 viewBox="0.00 0.00 504.00 211.00" xmlns="http://www.w3.org/2000/svg" xmlns:xlink="http://www.w3.org/1999/xlink">
<g id="graph0" class="graph" transform="scale(1 1) rotate(0) translate(4 207)">
<title>dependencies</title>
<polygon fill="#ffffff" stroke="transparent" points="-4,4 -4,-207 500,-207 500,4 -4,4"/>
<text text-anchor="start" x="227.0091" y="-42.4" font-family="sans-serif" font-weight="bold" font-size="14.00" fill="#000000">Legend</text>
<polygon fill="#ffffb3" stroke="transparent" points="14,-10 14,-30 34,-30 34,-10 14,-10"/>
<text text-anchor="start" x="37.629" y="-15.4" font-family="sans-serif" font-size="14.00" fill="#000000"> &#160;Declarations</text>
<polygon fill="#8dd3c7" stroke="transparent" points="127,-10 127,-30 147,-30 147,-10 127,-10"/>
<text text-anchor="start" x="150.7251" y="-15.4" font-family="sans-serif" font-size="14.00" fill="#000000"> &#160;Module</text>
<polygon fill="#80b1d3" stroke="transparent" points="213,-10 213,-30 233,-30 233,-10 213,-10"/>
<text text-anchor="start" x="236.7812" y="-15.4" font-family="sans-serif" font-size="14.00" fill="#000000"> &#160;Bootstrap</text>
<polygon fill="#fdb462" stroke="transparent" points="310,-10 310,-30 330,-30 330,-10 310,-10"/>
<text text-anchor="start" x="333.6732" y="-15.4" font-family="sans-serif" font-size="14.00" fill="#000000"> &#160;Providers</text>
<polygon fill="#fb8072" stroke="transparent" points="406,-10 406,-30 426,-30 426,-10 406,-10"/>
<text text-anchor="start" x="429.7258" y="-15.4" font-family="sans-serif" font-size="14.00" fill="#000000"> &#160;Exports</text>
<g id="clust1" class="cluster">
<title>cluster_BlackforestDevelopmentModule</title>
<polygon fill="none" stroke="#000000" stroke-dasharray="1,5" points="45,-70 45,-195 451,-195 451,-70 45,-70"/>
</g>
<g id="clust3" class="cluster">
<title>cluster_BlackforestDevelopmentModule_imports</title>
<polygon fill="none" stroke="#000000" points="53,-78 53,-130 443,-130 443,-78 53,-78"/>
</g>
<!-- CommonModule -->
<g id="node1" class="node">
<title>CommonModule</title>
<polygon fill="#8dd3c7" stroke="#000000" points="434.6681,-122 431.6681,-126 410.6681,-126 407.6681,-122 323.3319,-122 323.3319,-86 434.6681,-86 434.6681,-122"/>
<text text-anchor="middle" x="379" y="-99.8" font-family="Times,serif" font-size="14.00" fill="#000000">CommonModule</text>
</g>
<!-- BlackforestDevelopmentModule -->
<g id="node3" class="node">
<title>BlackforestDevelopmentModule</title>
<polygon fill="#8dd3c7" stroke="#000000" points="363,-187 360,-191 339,-191 336,-187 163,-187 163,-151 363,-151 363,-187"/>
<text text-anchor="middle" x="263" y="-164.8" font-family="Times,serif" font-size="14.00" fill="#000000">BlackforestDevelopmentModule</text>
</g>
<!-- CommonModule&#45;&gt;BlackforestDevelopmentModule -->
<g id="edge1" class="edge">
<title>CommonModule&#45;&gt;BlackforestDevelopmentModule</title>
<path fill="none" stroke="#000000" d="M342.958,-122.1061C342.958,-122.1061 342.958,-140.991 342.958,-140.991"/>
<polygon fill="#000000" stroke="#000000" points="339.458,-140.9909 342.958,-150.991 346.458,-140.991 339.458,-140.9909"/>
</g>
<!-- BlackforestDevelopmentRoutingModule -->
<g id="node2" class="node">
<title>BlackforestDevelopmentRoutingModule</title>
<polygon fill="#8dd3c7" stroke="#000000" points="305.1175,-122 302.1175,-126 281.1175,-126 278.1175,-122 60.8825,-122 60.8825,-86 305.1175,-86 305.1175,-122"/>
<text text-anchor="middle" x="183" y="-99.8" font-family="Times,serif" font-size="14.00" fill="#000000">BlackforestDevelopmentRoutingModule</text>
</g>
<!-- BlackforestDevelopmentRoutingModule&#45;&gt;BlackforestDevelopmentModule -->
<g id="edge2" class="edge">
<title>BlackforestDevelopmentRoutingModule&#45;&gt;BlackforestDevelopmentModule</title>
<path fill="none" stroke="#000000" d="M234.2795,-122.1061C234.2795,-122.1061 234.2795,-140.991 234.2795,-140.991"/>
<polygon fill="#000000" stroke="#000000" points="230.7795,-140.9909 234.2795,-150.991 237.7795,-140.991 230.7795,-140.9909"/>
</g>
</g>
</svg>
