<?xml version="1.0" encoding="UTF-8" standalone="no"?>
<!DOCTYPE svg PUBLIC "-//W3C//DTD SVG 1.1//EN"
 "http://www.w3.org/Graphics/SVG/1.1/DTD/svg11.dtd">
<!-- Generated by graphviz version 2.40.1 (20161225.0304)
 -->
<!-- Title: dependencies Pages: 1 -->
<svg width="504pt" height="211pt"
 viewBox="0.00 0.00 504.00 211.00" xmlns="http://www.w3.org/2000/svg" xmlns:xlink="http://www.w3.org/1999/xlink">
<g id="graph0" class="graph" transform="scale(1 1) rotate(0) translate(4 207)">
<title>dependencies</title>
<polygon fill="#ffffff" stroke="transparent" points="-4,4 -4,-207 500,-207 500,4 -4,4"/>
<text text-anchor="start" x="227.0091" y="-42.4" font-family="sans-serif" font-weight="bold" font-size="14.00" fill="#000000">Legend</text>
<polygon fill="#ffffb3" stroke="transparent" points="14,-10 14,-30 34,-30 34,-10 14,-10"/>
<text text-anchor="start" x="37.629" y="-15.4" font-family="sans-serif" font-size="14.00" fill="#000000"> &#160;Declarations</text>
<polygon fill="#8dd3c7" stroke="transparent" points="127,-10 127,-30 147,-30 147,-10 127,-10"/>
<text text-anchor="start" x="150.7251" y="-15.4" font-family="sans-serif" font-size="14.00" fill="#000000"> &#160;Module</text>
<polygon fill="#80b1d3" stroke="transparent" points="213,-10 213,-30 233,-30 233,-10 213,-10"/>
<text text-anchor="start" x="236.7812" y="-15.4" font-family="sans-serif" font-size="14.00" fill="#000000"> &#160;Bootstrap</text>
<polygon fill="#fdb462" stroke="transparent" points="310,-10 310,-30 330,-30 330,-10 310,-10"/>
<text text-anchor="start" x="333.6732" y="-15.4" font-family="sans-serif" font-size="14.00" fill="#000000"> &#160;Providers</text>
<polygon fill="#fb8072" stroke="transparent" points="406,-10 406,-30 426,-30 426,-10 406,-10"/>
<text text-anchor="start" x="429.7258" y="-15.4" font-family="sans-serif" font-size="14.00" fill="#000000"> &#160;Exports</text>
<g id="clust1" class="cluster">
<title>cluster_JourneyListModule</title>
<polygon fill="none" stroke="#000000" stroke-dasharray="1,5" points="82,-70 82,-195 414,-195 414,-70 82,-70"/>
</g>
<g id="clust3" class="cluster">
<title>cluster_JourneyListModule_imports</title>
<polygon fill="none" stroke="#000000" points="90,-78 90,-130 406,-130 406,-78 90,-78"/>
</g>
<!-- CommonModule -->
<g id="node1" class="node">
<title>CommonModule</title>
<polygon fill="#8dd3c7" stroke="#000000" points="397.6681,-122 394.6681,-126 373.6681,-126 370.6681,-122 286.3319,-122 286.3319,-86 397.6681,-86 397.6681,-122"/>
<text text-anchor="middle" x="342" y="-99.8" font-family="Times,serif" font-size="14.00" fill="#000000">CommonModule</text>
</g>
<!-- JourneyListModule -->
<g id="node3" class="node">
<title>JourneyListModule</title>
<polygon fill="#8dd3c7" stroke="#000000" points="324.6485,-187 321.6485,-191 300.6485,-191 297.6485,-187 199.3515,-187 199.3515,-151 324.6485,-151 324.6485,-187"/>
<text text-anchor="middle" x="262" y="-164.8" font-family="Times,serif" font-size="14.00" fill="#000000">JourneyListModule</text>
</g>
<!-- CommonModule&#45;&gt;JourneyListModule -->
<g id="edge1" class="edge">
<title>CommonModule&#45;&gt;JourneyListModule</title>
<path fill="none" stroke="#000000" d="M305.4951,-122.1061C305.4951,-122.1061 305.4951,-140.991 305.4951,-140.991"/>
<polygon fill="#000000" stroke="#000000" points="301.9952,-140.9909 305.4951,-150.991 308.9952,-140.991 301.9952,-140.9909"/>
</g>
<!-- JourneyListRoutingModule -->
<g id="node2" class="node">
<title>JourneyListRoutingModule</title>
<polygon fill="#8dd3c7" stroke="#000000" points="268.266,-122 265.266,-126 244.266,-126 241.266,-122 97.734,-122 97.734,-86 268.266,-86 268.266,-122"/>
<text text-anchor="middle" x="183" y="-99.8" font-family="Times,serif" font-size="14.00" fill="#000000">JourneyListRoutingModule</text>
</g>
<!-- JourneyListRoutingModule&#45;&gt;JourneyListModule -->
<g id="edge2" class="edge">
<title>JourneyListRoutingModule&#45;&gt;JourneyListModule</title>
<path fill="none" stroke="#000000" d="M233.7795,-122.1061C233.7795,-122.1061 233.7795,-140.991 233.7795,-140.991"/>
<polygon fill="#000000" stroke="#000000" points="230.2795,-140.9909 233.7795,-150.991 237.2795,-140.991 230.2795,-140.9909"/>
</g>
</g>
</svg>
