<?xml version="1.0" encoding="UTF-8" standalone="no"?>
<!DOCTYPE svg PUBLIC "-//W3C//DTD SVG 1.1//EN"
 "http://www.w3.org/Graphics/SVG/1.1/DTD/svg11.dtd">
<!-- Generated by graphviz version 2.40.1 (20161225.0304)
 -->
<!-- Title: dependencies Pages: 1 -->
<svg width="984pt" height="211pt"
 viewBox="0.00 0.00 984.00 211.00" xmlns="http://www.w3.org/2000/svg" xmlns:xlink="http://www.w3.org/1999/xlink">
<g id="graph0" class="graph" transform="scale(1 1) rotate(0) translate(4 207)">
<title>dependencies</title>
<polygon fill="#ffffff" stroke="transparent" points="-4,4 -4,-207 980,-207 980,4 -4,4"/>
<text text-anchor="start" x="467.0091" y="-42.4" font-family="sans-serif" font-weight="bold" font-size="14.00" fill="#000000">Legend</text>
<polygon fill="#ffffb3" stroke="transparent" points="254,-10 254,-30 274,-30 274,-10 254,-10"/>
<text text-anchor="start" x="277.629" y="-15.4" font-family="sans-serif" font-size="14.00" fill="#000000"> &#160;Declarations</text>
<polygon fill="#8dd3c7" stroke="transparent" points="367,-10 367,-30 387,-30 387,-10 367,-10"/>
<text text-anchor="start" x="390.7251" y="-15.4" font-family="sans-serif" font-size="14.00" fill="#000000"> &#160;Module</text>
<polygon fill="#80b1d3" stroke="transparent" points="453,-10 453,-30 473,-30 473,-10 453,-10"/>
<text text-anchor="start" x="476.7812" y="-15.4" font-family="sans-serif" font-size="14.00" fill="#000000"> &#160;Bootstrap</text>
<polygon fill="#fdb462" stroke="transparent" points="550,-10 550,-30 570,-30 570,-10 550,-10"/>
<text text-anchor="start" x="573.6732" y="-15.4" font-family="sans-serif" font-size="14.00" fill="#000000"> &#160;Providers</text>
<polygon fill="#fb8072" stroke="transparent" points="646,-10 646,-30 666,-30 666,-10 646,-10"/>
<text text-anchor="start" x="669.7258" y="-15.4" font-family="sans-serif" font-size="14.00" fill="#000000"> &#160;Exports</text>
<g id="clust1" class="cluster">
<title>cluster_TravelPointsModule</title>
<polygon fill="none" stroke="#000000" stroke-dasharray="1,5" points="8,-70 8,-195 968,-195 968,-70 8,-70"/>
</g>
<g id="clust3" class="cluster">
<title>cluster_TravelPointsModule_imports</title>
<polygon fill="none" stroke="#000000" points="16,-78 16,-130 960,-130 960,-78 16,-78"/>
</g>
<!-- CommonModule -->
<g id="node1" class="node">
<title>CommonModule</title>
<polygon fill="#8dd3c7" stroke="#000000" points="951.6681,-122 948.6681,-126 927.6681,-126 924.6681,-122 840.3319,-122 840.3319,-86 951.6681,-86 951.6681,-122"/>
<text text-anchor="middle" x="896" y="-99.8" font-family="Times,serif" font-size="14.00" fill="#000000">CommonModule</text>
</g>
<!-- TravelPointsModule -->
<g id="node7" class="node">
<title>TravelPointsModule</title>
<polygon fill="#8dd3c7" stroke="#000000" points="592.5912,-187 589.5912,-191 568.5912,-191 565.5912,-187 461.4088,-187 461.4088,-151 592.5912,-151 592.5912,-187"/>
<text text-anchor="middle" x="527" y="-164.8" font-family="Times,serif" font-size="14.00" fill="#000000">TravelPointsModule</text>
</g>
<!-- CommonModule&#45;&gt;TravelPointsModule -->
<g id="edge1" class="edge">
<title>CommonModule&#45;&gt;TravelPointsModule</title>
<path fill="none" stroke="#000000" d="M896,-122.2843C896,-143.3211 896,-175 896,-175 896,-175 602.9698,-175 602.9698,-175"/>
<polygon fill="#000000" stroke="#000000" points="602.9698,-171.5001 592.9698,-175 602.9698,-178.5001 602.9698,-171.5001"/>
</g>
<!-- TravelPointsRoutingModule -->
<g id="node2" class="node">
<title>TravelPointsRoutingModule</title>
<polygon fill="#8dd3c7" stroke="#000000" points="822.2091,-122 819.2091,-126 798.2091,-126 795.2091,-122 645.7909,-122 645.7909,-86 822.2091,-86 822.2091,-122"/>
<text text-anchor="middle" x="734" y="-99.8" font-family="Times,serif" font-size="14.00" fill="#000000">TravelPointsRoutingModule</text>
</g>
<!-- TravelPointsRoutingModule&#45;&gt;TravelPointsModule -->
<g id="edge2" class="edge">
<title>TravelPointsRoutingModule&#45;&gt;TravelPointsModule</title>
<path fill="none" stroke="#000000" d="M734,-122.0225C734,-139.3734 734,-163 734,-163 734,-163 602.7805,-163 602.7805,-163"/>
<polygon fill="#000000" stroke="#000000" points="602.7805,-159.5001 592.7805,-163 602.7805,-166.5001 602.7805,-159.5001"/>
</g>
<!-- SharedModule -->
<g id="node3" class="node">
<title>SharedModule</title>
<polygon fill="#8dd3c7" stroke="#000000" points="628.4231,-122 625.4231,-126 604.4231,-126 601.4231,-122 529.5769,-122 529.5769,-86 628.4231,-86 628.4231,-122"/>
<text text-anchor="middle" x="579" y="-99.8" font-family="Times,serif" font-size="14.00" fill="#000000">SharedModule</text>
</g>
<!-- SharedModule&#45;&gt;TravelPointsModule -->
<g id="edge3" class="edge">
<title>SharedModule&#45;&gt;TravelPointsModule</title>
<path fill="none" stroke="#000000" d="M561.1673,-122.1061C561.1673,-122.1061 561.1673,-140.991 561.1673,-140.991"/>
<polygon fill="#000000" stroke="#000000" points="557.6673,-140.9909 561.1673,-150.991 564.6673,-140.991 557.6673,-140.9909"/>
</g>
<!-- ...modules -->
<g id="node4" class="node">
<title>...modules</title>
<polygon fill="#8dd3c7" stroke="#000000" points="511.9404,-122 508.9404,-126 487.9404,-126 484.9404,-122 438.0596,-122 438.0596,-86 511.9404,-86 511.9404,-122"/>
<text text-anchor="middle" x="475" y="-99.8" font-family="Times,serif" font-size="14.00" fill="#000000">...modules</text>
</g>
<!-- ...modules&#45;&gt;TravelPointsModule -->
<g id="edge4" class="edge">
<title>...modules&#45;&gt;TravelPointsModule</title>
<path fill="none" stroke="#000000" d="M486.7123,-122.1061C486.7123,-122.1061 486.7123,-140.991 486.7123,-140.991"/>
<polygon fill="#000000" stroke="#000000" points="483.2124,-140.9909 486.7123,-150.991 490.2124,-140.991 483.2124,-140.9909"/>
</g>
<!-- StoreModule.forFeature(args) -->
<g id="node5" class="node">
<title>StoreModule.forFeature(args)</title>
<polygon fill="#8dd3c7" stroke="#000000" points="419.5386,-122 416.5386,-126 395.5386,-126 392.5386,-122 236.4614,-122 236.4614,-86 419.5386,-86 419.5386,-122"/>
<text text-anchor="middle" x="328" y="-99.8" font-family="Times,serif" font-size="14.00" fill="#000000">StoreModule.forFeature(args)</text>
</g>
<!-- StoreModule.forFeature(args)&#45;&gt;TravelPointsModule -->
<g id="edge5" class="edge">
<title>StoreModule.forFeature(args)&#45;&gt;TravelPointsModule</title>
<path fill="none" stroke="#000000" d="M328,-122.0225C328,-139.3734 328,-163 328,-163 328,-163 451.2884,-163 451.2884,-163"/>
<polygon fill="#000000" stroke="#000000" points="451.2885,-166.5001 461.2884,-163 451.2884,-159.5001 451.2885,-166.5001"/>
</g>
<!-- EffectsModule.forFeature(args) -->
<g id="node6" class="node">
<title>EffectsModule.forFeature(args)</title>
<polygon fill="#8dd3c7" stroke="#000000" points="217.6282,-122 214.6282,-126 193.6282,-126 190.6282,-122 24.3718,-122 24.3718,-86 217.6282,-86 217.6282,-122"/>
<text text-anchor="middle" x="121" y="-99.8" font-family="Times,serif" font-size="14.00" fill="#000000">EffectsModule.forFeature(args)</text>
</g>
<!-- EffectsModule.forFeature(args)&#45;&gt;TravelPointsModule -->
<g id="edge6" class="edge">
<title>EffectsModule.forFeature(args)&#45;&gt;TravelPointsModule</title>
<path fill="none" stroke="#000000" d="M121,-122.2843C121,-143.3211 121,-175 121,-175 121,-175 451.3179,-175 451.3179,-175"/>
<polygon fill="#000000" stroke="#000000" points="451.3179,-178.5001 461.3179,-175 451.3178,-171.5001 451.3179,-178.5001"/>
</g>
</g>
</svg>
