<?xml version="1.0" encoding="UTF-8" standalone="no"?>
<!DOCTYPE svg PUBLIC "-//W3C//DTD SVG 1.1//EN"
 "http://www.w3.org/Graphics/SVG/1.1/DTD/svg11.dtd">
<!-- Generated by graphviz version 2.40.1 (20161225.0304)
 -->
<!-- Title: dependencies Pages: 1 -->
<svg width="892pt" height="211pt"
 viewBox="0.00 0.00 892.00 211.00" xmlns="http://www.w3.org/2000/svg" xmlns:xlink="http://www.w3.org/1999/xlink">
<g id="graph0" class="graph" transform="scale(1 1) rotate(0) translate(4 207)">
<title>dependencies</title>
<polygon fill="#ffffff" stroke="transparent" points="-4,4 -4,-207 888,-207 888,4 -4,4"/>
<text text-anchor="start" x="421.0091" y="-42.4" font-family="sans-serif" font-weight="bold" font-size="14.00" fill="#000000">Legend</text>
<polygon fill="#ffffb3" stroke="transparent" points="208,-10 208,-30 228,-30 228,-10 208,-10"/>
<text text-anchor="start" x="231.629" y="-15.4" font-family="sans-serif" font-size="14.00" fill="#000000"> &#160;Declarations</text>
<polygon fill="#8dd3c7" stroke="transparent" points="321,-10 321,-30 341,-30 341,-10 321,-10"/>
<text text-anchor="start" x="344.7251" y="-15.4" font-family="sans-serif" font-size="14.00" fill="#000000"> &#160;Module</text>
<polygon fill="#80b1d3" stroke="transparent" points="407,-10 407,-30 427,-30 427,-10 407,-10"/>
<text text-anchor="start" x="430.7812" y="-15.4" font-family="sans-serif" font-size="14.00" fill="#000000"> &#160;Bootstrap</text>
<polygon fill="#fdb462" stroke="transparent" points="504,-10 504,-30 524,-30 524,-10 504,-10"/>
<text text-anchor="start" x="527.6732" y="-15.4" font-family="sans-serif" font-size="14.00" fill="#000000"> &#160;Providers</text>
<polygon fill="#fb8072" stroke="transparent" points="600,-10 600,-30 620,-30 620,-10 600,-10"/>
<text text-anchor="start" x="623.7258" y="-15.4" font-family="sans-serif" font-size="14.00" fill="#000000"> &#160;Exports</text>
<g id="clust1" class="cluster">
<title>cluster_TravelPointsModule</title>
<polygon fill="none" stroke="#000000" stroke-dasharray="1,5" points="8,-70 8,-195 876,-195 876,-70 8,-70"/>
</g>
<g id="clust3" class="cluster">
<title>cluster_TravelPointsModule_imports</title>
<polygon fill="none" stroke="#000000" points="16,-78 16,-130 868,-130 868,-78 16,-78"/>
</g>
<!-- CommonModule -->
<g id="node1" class="node">
<title>CommonModule</title>
<polygon fill="#8dd3c7" stroke="#000000" points="859.6681,-122 856.6681,-126 835.6681,-126 832.6681,-122 748.3319,-122 748.3319,-86 859.6681,-86 859.6681,-122"/>
<text text-anchor="middle" x="804" y="-99.8" font-family="Times,serif" font-size="14.00" fill="#000000">CommonModule</text>
</g>
<!-- TravelPointsModule -->
<g id="node6" class="node">
<title>TravelPointsModule</title>
<polygon fill="#8dd3c7" stroke="#000000" points="552.5912,-187 549.5912,-191 528.5912,-191 525.5912,-187 421.4088,-187 421.4088,-151 552.5912,-151 552.5912,-187"/>
<text text-anchor="middle" x="487" y="-164.8" font-family="Times,serif" font-size="14.00" fill="#000000">TravelPointsModule</text>
</g>
<!-- CommonModule&#45;&gt;TravelPointsModule -->
<g id="edge1" class="edge">
<title>CommonModule&#45;&gt;TravelPointsModule</title>
<path fill="none" stroke="#000000" d="M804,-122.1061C804,-141.3391 804,-169 804,-169 804,-169 562.6826,-169 562.6826,-169"/>
<polygon fill="#000000" stroke="#000000" points="562.6826,-165.5001 552.6826,-169 562.6826,-172.5001 562.6826,-165.5001"/>
</g>
<!-- TravelPointsRoutingModule -->
<g id="node2" class="node">
<title>TravelPointsRoutingModule</title>
<polygon fill="#8dd3c7" stroke="#000000" points="730.2091,-122 727.2091,-126 706.2091,-126 703.2091,-122 553.7909,-122 553.7909,-86 730.2091,-86 730.2091,-122"/>
<text text-anchor="middle" x="642" y="-99.8" font-family="Times,serif" font-size="14.00" fill="#000000">TravelPointsRoutingModule</text>
</g>
<!-- TravelPointsRoutingModule&#45;&gt;TravelPointsModule -->
<g id="edge2" class="edge">
<title>TravelPointsRoutingModule&#45;&gt;TravelPointsModule</title>
<path fill="none" stroke="#000000" d="M553.7387,-104C547.9549,-104 544.3784,-104 544.3784,-104 544.3784,-104 544.3784,-140.8939 544.3784,-140.8939"/>
<polygon fill="#000000" stroke="#000000" points="540.8784,-140.8938 544.3784,-150.8939 547.8784,-140.8939 540.8784,-140.8938"/>
</g>
<!-- SharedModule -->
<g id="node3" class="node">
<title>SharedModule</title>
<polygon fill="#8dd3c7" stroke="#000000" points="536.4231,-122 533.4231,-126 512.4231,-126 509.4231,-122 437.5769,-122 437.5769,-86 536.4231,-86 536.4231,-122"/>
<text text-anchor="middle" x="487" y="-99.8" font-family="Times,serif" font-size="14.00" fill="#000000">SharedModule</text>
</g>
<!-- SharedModule&#45;&gt;TravelPointsModule -->
<g id="edge3" class="edge">
<title>SharedModule&#45;&gt;TravelPointsModule</title>
<path fill="none" stroke="#000000" d="M487,-122.1061C487,-122.1061 487,-140.991 487,-140.991"/>
<polygon fill="#000000" stroke="#000000" points="483.5001,-140.9909 487,-150.991 490.5001,-140.991 483.5001,-140.9909"/>
</g>
<!-- StoreModule.forFeature(args) -->
<g id="node4" class="node">
<title>StoreModule.forFeature(args)</title>
<polygon fill="#8dd3c7" stroke="#000000" points="419.5386,-122 416.5386,-126 395.5386,-126 392.5386,-122 236.4614,-122 236.4614,-86 419.5386,-86 419.5386,-122"/>
<text text-anchor="middle" x="328" y="-99.8" font-family="Times,serif" font-size="14.00" fill="#000000">StoreModule.forFeature(args)</text>
</g>
<!-- StoreModule.forFeature(args)&#45;&gt;TravelPointsModule -->
<g id="edge4" class="edge">
<title>StoreModule.forFeature(args)&#45;&gt;TravelPointsModule</title>
<path fill="none" stroke="#000000" d="M419.8777,-104C425.8986,-104 429.6217,-104 429.6217,-104 429.6217,-104 429.6217,-140.8939 429.6217,-140.8939"/>
<polygon fill="#000000" stroke="#000000" points="426.1217,-140.8938 429.6217,-150.8939 433.1217,-140.8939 426.1217,-140.8938"/>
</g>
<!-- EffectsModule.forFeature(args) -->
<g id="node5" class="node">
<title>EffectsModule.forFeature(args)</title>
<polygon fill="#8dd3c7" stroke="#000000" points="217.6282,-122 214.6282,-126 193.6282,-126 190.6282,-122 24.3718,-122 24.3718,-86 217.6282,-86 217.6282,-122"/>
<text text-anchor="middle" x="121" y="-99.8" font-family="Times,serif" font-size="14.00" fill="#000000">EffectsModule.forFeature(args)</text>
</g>
<!-- EffectsModule.forFeature(args)&#45;&gt;TravelPointsModule -->
<g id="edge5" class="edge">
<title>EffectsModule.forFeature(args)&#45;&gt;TravelPointsModule</title>
<path fill="none" stroke="#000000" d="M121,-122.1061C121,-141.3391 121,-169 121,-169 121,-169 411.1438,-169 411.1438,-169"/>
<polygon fill="#000000" stroke="#000000" points="411.1439,-172.5001 421.1438,-169 411.1438,-165.5001 411.1439,-172.5001"/>
</g>
</g>
</svg>
