<?xml version="1.0" encoding="UTF-8" standalone="no"?>
<!DOCTYPE svg PUBLIC "-//W3C//DTD SVG 1.1//EN"
 "http://www.w3.org/Graphics/SVG/1.1/DTD/svg11.dtd">
<!-- Generated by graphviz version 2.40.1 (20161225.0304)
 -->
<!-- Title: dependencies Pages: 1 -->
<svg width="776pt" height="211pt"
 viewBox="0.00 0.00 776.00 211.00" xmlns="http://www.w3.org/2000/svg" xmlns:xlink="http://www.w3.org/1999/xlink">
<g id="graph0" class="graph" transform="scale(1 1) rotate(0) translate(4 207)">
<title>dependencies</title>
<polygon fill="#ffffff" stroke="transparent" points="-4,4 -4,-207 772,-207 772,4 -4,4"/>
<text text-anchor="start" x="363.0091" y="-42.4" font-family="sans-serif" font-weight="bold" font-size="14.00" fill="#000000">Legend</text>
<polygon fill="#ffffb3" stroke="transparent" points="150,-10 150,-30 170,-30 170,-10 150,-10"/>
<text text-anchor="start" x="173.629" y="-15.4" font-family="sans-serif" font-size="14.00" fill="#000000"> &#160;Declarations</text>
<polygon fill="#8dd3c7" stroke="transparent" points="263,-10 263,-30 283,-30 283,-10 263,-10"/>
<text text-anchor="start" x="286.7251" y="-15.4" font-family="sans-serif" font-size="14.00" fill="#000000"> &#160;Module</text>
<polygon fill="#80b1d3" stroke="transparent" points="349,-10 349,-30 369,-30 369,-10 349,-10"/>
<text text-anchor="start" x="372.7812" y="-15.4" font-family="sans-serif" font-size="14.00" fill="#000000"> &#160;Bootstrap</text>
<polygon fill="#fdb462" stroke="transparent" points="446,-10 446,-30 466,-30 466,-10 446,-10"/>
<text text-anchor="start" x="469.6732" y="-15.4" font-family="sans-serif" font-size="14.00" fill="#000000"> &#160;Providers</text>
<polygon fill="#fb8072" stroke="transparent" points="542,-10 542,-30 562,-30 562,-10 542,-10"/>
<text text-anchor="start" x="565.7258" y="-15.4" font-family="sans-serif" font-size="14.00" fill="#000000"> &#160;Exports</text>
<g id="clust1" class="cluster">
<title>cluster_TravelPointsModule</title>
<polygon fill="none" stroke="#000000" stroke-dasharray="1,5" points="8,-70 8,-195 760,-195 760,-70 8,-70"/>
</g>
<g id="clust3" class="cluster">
<title>cluster_TravelPointsModule_imports</title>
<polygon fill="none" stroke="#000000" points="16,-78 16,-130 752,-130 752,-78 16,-78"/>
</g>
<!-- CommonModule -->
<g id="node1" class="node">
<title>CommonModule</title>
<polygon fill="#8dd3c7" stroke="#000000" points="743.6681,-122 740.6681,-126 719.6681,-126 716.6681,-122 632.3319,-122 632.3319,-86 743.6681,-86 743.6681,-122"/>
<text text-anchor="middle" x="688" y="-99.8" font-family="Times,serif" font-size="14.00" fill="#000000">CommonModule</text>
</g>
<!-- TravelPointsModule -->
<g id="node5" class="node">
<title>TravelPointsModule</title>
<polygon fill="#8dd3c7" stroke="#000000" points="492.5912,-187 489.5912,-191 468.5912,-191 465.5912,-187 361.4088,-187 361.4088,-151 492.5912,-151 492.5912,-187"/>
<text text-anchor="middle" x="427" y="-164.8" font-family="Times,serif" font-size="14.00" fill="#000000">TravelPointsModule</text>
</g>
<!-- CommonModule&#45;&gt;TravelPointsModule -->
<g id="edge1" class="edge">
<title>CommonModule&#45;&gt;TravelPointsModule</title>
<path fill="none" stroke="#000000" d="M688,-122.1061C688,-141.3391 688,-169 688,-169 688,-169 502.8613,-169 502.8613,-169"/>
<polygon fill="#000000" stroke="#000000" points="502.8614,-165.5001 492.8613,-169 502.8613,-172.5001 502.8614,-165.5001"/>
</g>
<!-- TravelPointsRoutingModule -->
<g id="node2" class="node">
<title>TravelPointsRoutingModule</title>
<polygon fill="#8dd3c7" stroke="#000000" points="614.2091,-122 611.2091,-126 590.2091,-126 587.2091,-122 437.7909,-122 437.7909,-86 614.2091,-86 614.2091,-122"/>
<text text-anchor="middle" x="526" y="-99.8" font-family="Times,serif" font-size="14.00" fill="#000000">TravelPointsRoutingModule</text>
</g>
<!-- TravelPointsRoutingModule&#45;&gt;TravelPointsModule -->
<g id="edge2" class="edge">
<title>TravelPointsRoutingModule&#45;&gt;TravelPointsModule</title>
<path fill="none" stroke="#000000" d="M465.2206,-122.1061C465.2206,-122.1061 465.2206,-140.991 465.2206,-140.991"/>
<polygon fill="#000000" stroke="#000000" points="461.7206,-140.9909 465.2206,-150.991 468.7206,-140.991 461.7206,-140.9909"/>
</g>
<!-- StoreModule.forFeature(args) -->
<g id="node3" class="node">
<title>StoreModule.forFeature(args)</title>
<polygon fill="#8dd3c7" stroke="#000000" points="419.5386,-122 416.5386,-126 395.5386,-126 392.5386,-122 236.4614,-122 236.4614,-86 419.5386,-86 419.5386,-122"/>
<text text-anchor="middle" x="328" y="-99.8" font-family="Times,serif" font-size="14.00" fill="#000000">StoreModule.forFeature(args)</text>
</g>
<!-- StoreModule.forFeature(args)&#45;&gt;TravelPointsModule -->
<g id="edge3" class="edge">
<title>StoreModule.forFeature(args)&#45;&gt;TravelPointsModule</title>
<path fill="none" stroke="#000000" d="M390.6117,-122.1061C390.6117,-122.1061 390.6117,-140.991 390.6117,-140.991"/>
<polygon fill="#000000" stroke="#000000" points="387.1118,-140.9909 390.6117,-150.991 394.1118,-140.991 387.1118,-140.9909"/>
</g>
<!-- EffectsModule.forFeature(args) -->
<g id="node4" class="node">
<title>EffectsModule.forFeature(args)</title>
<polygon fill="#8dd3c7" stroke="#000000" points="217.6282,-122 214.6282,-126 193.6282,-126 190.6282,-122 24.3718,-122 24.3718,-86 217.6282,-86 217.6282,-122"/>
<text text-anchor="middle" x="121" y="-99.8" font-family="Times,serif" font-size="14.00" fill="#000000">EffectsModule.forFeature(args)</text>
</g>
<!-- EffectsModule.forFeature(args)&#45;&gt;TravelPointsModule -->
<g id="edge4" class="edge">
<title>EffectsModule.forFeature(args)&#45;&gt;TravelPointsModule</title>
<path fill="none" stroke="#000000" d="M121,-122.1061C121,-141.3391 121,-169 121,-169 121,-169 351.3553,-169 351.3553,-169"/>
<polygon fill="#000000" stroke="#000000" points="351.3554,-172.5001 361.3553,-169 351.3553,-165.5001 351.3554,-172.5001"/>
</g>
</g>
</svg>
