<?xml version="1.0" encoding="UTF-8" standalone="no"?>
<!DOCTYPE svg PUBLIC "-//W3C//DTD SVG 1.1//EN"
 "http://www.w3.org/Graphics/SVG/1.1/DTD/svg11.dtd">
<!-- Generated by graphviz version 2.40.1 (20161225.0304)
 -->
<!-- Title: dependencies Pages: 1 -->
<svg width="754pt" height="211pt"
 viewBox="0.00 0.00 754.00 211.00" xmlns="http://www.w3.org/2000/svg" xmlns:xlink="http://www.w3.org/1999/xlink">
<g id="graph0" class="graph" transform="scale(1 1) rotate(0) translate(4 207)">
<title>dependencies</title>
<polygon fill="#ffffff" stroke="transparent" points="-4,4 -4,-207 750,-207 750,4 -4,4"/>
<text text-anchor="start" x="352.0091" y="-42.4" font-family="sans-serif" font-weight="bold" font-size="14.00" fill="#000000">Legend</text>
<polygon fill="#ffffb3" stroke="transparent" points="139,-10 139,-30 159,-30 159,-10 139,-10"/>
<text text-anchor="start" x="162.629" y="-15.4" font-family="sans-serif" font-size="14.00" fill="#000000"> &#160;Declarations</text>
<polygon fill="#8dd3c7" stroke="transparent" points="252,-10 252,-30 272,-30 272,-10 252,-10"/>
<text text-anchor="start" x="275.7251" y="-15.4" font-family="sans-serif" font-size="14.00" fill="#000000"> &#160;Module</text>
<polygon fill="#80b1d3" stroke="transparent" points="338,-10 338,-30 358,-30 358,-10 338,-10"/>
<text text-anchor="start" x="361.7812" y="-15.4" font-family="sans-serif" font-size="14.00" fill="#000000"> &#160;Bootstrap</text>
<polygon fill="#fdb462" stroke="transparent" points="435,-10 435,-30 455,-30 455,-10 435,-10"/>
<text text-anchor="start" x="458.6732" y="-15.4" font-family="sans-serif" font-size="14.00" fill="#000000"> &#160;Providers</text>
<polygon fill="#fb8072" stroke="transparent" points="531,-10 531,-30 551,-30 551,-10 531,-10"/>
<text text-anchor="start" x="554.7258" y="-15.4" font-family="sans-serif" font-size="14.00" fill="#000000"> &#160;Exports</text>
<g id="clust1" class="cluster">
<title>cluster_JourneysModule</title>
<polygon fill="none" stroke="#000000" stroke-dasharray="1,5" points="8,-70 8,-195 738,-195 738,-70 8,-70"/>
</g>
<g id="clust3" class="cluster">
<title>cluster_JourneysModule_imports</title>
<polygon fill="none" stroke="#000000" points="16,-78 16,-130 730,-130 730,-78 16,-78"/>
</g>
<!-- CommonModule -->
<g id="node1" class="node">
<title>CommonModule</title>
<polygon fill="#8dd3c7" stroke="#000000" points="721.6681,-122 718.6681,-126 697.6681,-126 694.6681,-122 610.3319,-122 610.3319,-86 721.6681,-86 721.6681,-122"/>
<text text-anchor="middle" x="666" y="-99.8" font-family="Times,serif" font-size="14.00" fill="#000000">CommonModule</text>
</g>
<!-- JourneysModule -->
<g id="node5" class="node">
<title>JourneysModule</title>
<polygon fill="#8dd3c7" stroke="#000000" points="475.8147,-187 472.8147,-191 451.8147,-191 448.8147,-187 366.1853,-187 366.1853,-151 475.8147,-151 475.8147,-187"/>
<text text-anchor="middle" x="421" y="-164.8" font-family="Times,serif" font-size="14.00" fill="#000000">JourneysModule</text>
</g>
<!-- CommonModule&#45;&gt;JourneysModule -->
<g id="edge1" class="edge">
<title>CommonModule&#45;&gt;JourneysModule</title>
<path fill="none" stroke="#000000" d="M666,-122.1061C666,-141.3391 666,-169 666,-169 666,-169 485.6778,-169 485.6778,-169"/>
<polygon fill="#000000" stroke="#000000" points="485.6779,-165.5001 475.6778,-169 485.6778,-172.5001 485.6779,-165.5001"/>
</g>
<!-- JourneysRoutingModule -->
<g id="node2" class="node">
<title>JourneysRoutingModule</title>
<polygon fill="#8dd3c7" stroke="#000000" points="592.4326,-122 589.4326,-126 568.4326,-126 565.4326,-122 437.5674,-122 437.5674,-86 592.4326,-86 592.4326,-122"/>
<text text-anchor="middle" x="515" y="-99.8" font-family="Times,serif" font-size="14.00" fill="#000000">JourneysRoutingModule</text>
</g>
<!-- JourneysRoutingModule&#45;&gt;JourneysModule -->
<g id="edge2" class="edge">
<title>JourneysRoutingModule&#45;&gt;JourneysModule</title>
<path fill="none" stroke="#000000" d="M456.7206,-122.1061C456.7206,-122.1061 456.7206,-140.991 456.7206,-140.991"/>
<polygon fill="#000000" stroke="#000000" points="453.2206,-140.9909 456.7206,-150.991 460.2206,-140.991 453.2206,-140.9909"/>
</g>
<!-- StoreModule.forFeature(args) -->
<g id="node3" class="node">
<title>StoreModule.forFeature(args)</title>
<polygon fill="#8dd3c7" stroke="#000000" points="419.5386,-122 416.5386,-126 395.5386,-126 392.5386,-122 236.4614,-122 236.4614,-86 419.5386,-86 419.5386,-122"/>
<text text-anchor="middle" x="328" y="-99.8" font-family="Times,serif" font-size="14.00" fill="#000000">StoreModule.forFeature(args)</text>
</g>
<!-- StoreModule.forFeature(args)&#45;&gt;JourneysModule -->
<g id="edge3" class="edge">
<title>StoreModule.forFeature(args)&#45;&gt;JourneysModule</title>
<path fill="none" stroke="#000000" d="M393.056,-122.1061C393.056,-122.1061 393.056,-140.991 393.056,-140.991"/>
<polygon fill="#000000" stroke="#000000" points="389.556,-140.9909 393.056,-150.991 396.556,-140.991 389.556,-140.9909"/>
</g>
<!-- EffectsModule.forFeature(args) -->
<g id="node4" class="node">
<title>EffectsModule.forFeature(args)</title>
<polygon fill="#8dd3c7" stroke="#000000" points="217.6282,-122 214.6282,-126 193.6282,-126 190.6282,-122 24.3718,-122 24.3718,-86 217.6282,-86 217.6282,-122"/>
<text text-anchor="middle" x="121" y="-99.8" font-family="Times,serif" font-size="14.00" fill="#000000">EffectsModule.forFeature(args)</text>
</g>
<!-- EffectsModule.forFeature(args)&#45;&gt;JourneysModule -->
<g id="edge4" class="edge">
<title>EffectsModule.forFeature(args)&#45;&gt;JourneysModule</title>
<path fill="none" stroke="#000000" d="M121,-122.1061C121,-141.3391 121,-169 121,-169 121,-169 356.3242,-169 356.3242,-169"/>
<polygon fill="#000000" stroke="#000000" points="356.3242,-172.5001 366.3242,-169 356.3242,-165.5001 356.3242,-172.5001"/>
</g>
</g>
</svg>
