<?xml version="1.0" encoding="UTF-8" standalone="no"?>
<!DOCTYPE svg PUBLIC "-//W3C//DTD SVG 1.1//EN"
 "http://www.w3.org/Graphics/SVG/1.1/DTD/svg11.dtd">
<!-- Generated by graphviz version 2.40.1 (20161225.0304)
 -->
<!-- Title: dependencies Pages: 1 -->
<svg width="870pt" height="211pt"
 viewBox="0.00 0.00 870.00 211.00" xmlns="http://www.w3.org/2000/svg" xmlns:xlink="http://www.w3.org/1999/xlink">
<g id="graph0" class="graph" transform="scale(1 1) rotate(0) translate(4 207)">
<title>dependencies</title>
<polygon fill="#ffffff" stroke="transparent" points="-4,4 -4,-207 866,-207 866,4 -4,4"/>
<text text-anchor="start" x="410.0091" y="-42.4" font-family="sans-serif" font-weight="bold" font-size="14.00" fill="#000000">Legend</text>
<polygon fill="#ffffb3" stroke="transparent" points="197,-10 197,-30 217,-30 217,-10 197,-10"/>
<text text-anchor="start" x="220.629" y="-15.4" font-family="sans-serif" font-size="14.00" fill="#000000"> &#160;Declarations</text>
<polygon fill="#8dd3c7" stroke="transparent" points="310,-10 310,-30 330,-30 330,-10 310,-10"/>
<text text-anchor="start" x="333.7251" y="-15.4" font-family="sans-serif" font-size="14.00" fill="#000000"> &#160;Module</text>
<polygon fill="#80b1d3" stroke="transparent" points="396,-10 396,-30 416,-30 416,-10 396,-10"/>
<text text-anchor="start" x="419.7812" y="-15.4" font-family="sans-serif" font-size="14.00" fill="#000000"> &#160;Bootstrap</text>
<polygon fill="#fdb462" stroke="transparent" points="493,-10 493,-30 513,-30 513,-10 493,-10"/>
<text text-anchor="start" x="516.6732" y="-15.4" font-family="sans-serif" font-size="14.00" fill="#000000"> &#160;Providers</text>
<polygon fill="#fb8072" stroke="transparent" points="589,-10 589,-30 609,-30 609,-10 589,-10"/>
<text text-anchor="start" x="612.7258" y="-15.4" font-family="sans-serif" font-size="14.00" fill="#000000"> &#160;Exports</text>
<g id="clust1" class="cluster">
<title>cluster_JourneysModule</title>
<polygon fill="none" stroke="#000000" stroke-dasharray="1,5" points="8,-70 8,-195 854,-195 854,-70 8,-70"/>
</g>
<g id="clust3" class="cluster">
<title>cluster_JourneysModule_imports</title>
<polygon fill="none" stroke="#000000" points="16,-78 16,-130 846,-130 846,-78 16,-78"/>
</g>
<!-- CommonModule -->
<g id="node1" class="node">
<title>CommonModule</title>
<polygon fill="#8dd3c7" stroke="#000000" points="837.6681,-122 834.6681,-126 813.6681,-126 810.6681,-122 726.3319,-122 726.3319,-86 837.6681,-86 837.6681,-122"/>
<text text-anchor="middle" x="782" y="-99.8" font-family="Times,serif" font-size="14.00" fill="#000000">CommonModule</text>
</g>
<!-- JourneysModule -->
<g id="node6" class="node">
<title>JourneysModule</title>
<polygon fill="#8dd3c7" stroke="#000000" points="541.8147,-187 538.8147,-191 517.8147,-191 514.8147,-187 432.1853,-187 432.1853,-151 541.8147,-151 541.8147,-187"/>
<text text-anchor="middle" x="487" y="-164.8" font-family="Times,serif" font-size="14.00" fill="#000000">JourneysModule</text>
</g>
<!-- CommonModule&#45;&gt;JourneysModule -->
<g id="edge1" class="edge">
<title>CommonModule&#45;&gt;JourneysModule</title>
<path fill="none" stroke="#000000" d="M782,-122.2843C782,-143.3211 782,-175 782,-175 782,-175 551.7959,-175 551.7959,-175"/>
<polygon fill="#000000" stroke="#000000" points="551.7959,-171.5001 541.7959,-175 551.7958,-178.5001 551.7959,-171.5001"/>
</g>
<!-- JourneysRoutingModule -->
<g id="node2" class="node">
<title>JourneysRoutingModule</title>
<polygon fill="#8dd3c7" stroke="#000000" points="708.4326,-122 705.4326,-126 684.4326,-126 681.4326,-122 553.5674,-122 553.5674,-86 708.4326,-86 708.4326,-122"/>
<text text-anchor="middle" x="631" y="-99.8" font-family="Times,serif" font-size="14.00" fill="#000000">JourneysRoutingModule</text>
</g>
<!-- JourneysRoutingModule&#45;&gt;JourneysModule -->
<g id="edge2" class="edge">
<title>JourneysRoutingModule&#45;&gt;JourneysModule</title>
<path fill="none" stroke="#000000" d="M631,-122.0225C631,-139.3734 631,-163 631,-163 631,-163 551.851,-163 551.851,-163"/>
<polygon fill="#000000" stroke="#000000" points="551.851,-159.5001 541.851,-163 551.851,-166.5001 551.851,-159.5001"/>
</g>
<!-- SharedModule -->
<g id="node3" class="node">
<title>SharedModule</title>
<polygon fill="#8dd3c7" stroke="#000000" points="536.4231,-122 533.4231,-126 512.4231,-126 509.4231,-122 437.5769,-122 437.5769,-86 536.4231,-86 536.4231,-122"/>
<text text-anchor="middle" x="487" y="-99.8" font-family="Times,serif" font-size="14.00" fill="#000000">SharedModule</text>
</g>
<!-- SharedModule&#45;&gt;JourneysModule -->
<g id="edge3" class="edge">
<title>SharedModule&#45;&gt;JourneysModule</title>
<path fill="none" stroke="#000000" d="M487,-122.1061C487,-122.1061 487,-140.991 487,-140.991"/>
<polygon fill="#000000" stroke="#000000" points="483.5001,-140.9909 487,-150.991 490.5001,-140.991 483.5001,-140.9909"/>
</g>
<!-- StoreModule.forFeature(args) -->
<g id="node4" class="node">
<title>StoreModule.forFeature(args)</title>
<polygon fill="#8dd3c7" stroke="#000000" points="419.5386,-122 416.5386,-126 395.5386,-126 392.5386,-122 236.4614,-122 236.4614,-86 419.5386,-86 419.5386,-122"/>
<text text-anchor="middle" x="328" y="-99.8" font-family="Times,serif" font-size="14.00" fill="#000000">StoreModule.forFeature(args)</text>
</g>
<!-- StoreModule.forFeature(args)&#45;&gt;JourneysModule -->
<g id="edge4" class="edge">
<title>StoreModule.forFeature(args)&#45;&gt;JourneysModule</title>
<path fill="none" stroke="#000000" d="M328,-122.0225C328,-139.3734 328,-163 328,-163 328,-163 422.2812,-163 422.2812,-163"/>
<polygon fill="#000000" stroke="#000000" points="422.2813,-166.5001 432.2812,-163 422.2812,-159.5001 422.2813,-166.5001"/>
</g>
<!-- EffectsModule.forFeature(args) -->
<g id="node5" class="node">
<title>EffectsModule.forFeature(args)</title>
<polygon fill="#8dd3c7" stroke="#000000" points="217.6282,-122 214.6282,-126 193.6282,-126 190.6282,-122 24.3718,-122 24.3718,-86 217.6282,-86 217.6282,-122"/>
<text text-anchor="middle" x="121" y="-99.8" font-family="Times,serif" font-size="14.00" fill="#000000">EffectsModule.forFeature(args)</text>
</g>
<!-- EffectsModule.forFeature(args)&#45;&gt;JourneysModule -->
<g id="edge5" class="edge">
<title>EffectsModule.forFeature(args)&#45;&gt;JourneysModule</title>
<path fill="none" stroke="#000000" d="M121,-122.2843C121,-143.3211 121,-175 121,-175 121,-175 422.2061,-175 422.2061,-175"/>
<polygon fill="#000000" stroke="#000000" points="422.2061,-178.5001 432.2061,-175 422.2061,-171.5001 422.2061,-178.5001"/>
</g>
</g>
</svg>
