<?xml version="1.0" encoding="UTF-8" standalone="no"?>
<!DOCTYPE svg PUBLIC "-//W3C//DTD SVG 1.1//EN"
 "http://www.w3.org/Graphics/SVG/1.1/DTD/svg11.dtd">
<!-- Generated by graphviz version 2.40.1 (20161225.0304)
 -->
<!-- Title: dependencies Pages: 1 -->
<svg width="707pt" height="211pt"
 viewBox="0.00 0.00 707.00 211.00" xmlns="http://www.w3.org/2000/svg" xmlns:xlink="http://www.w3.org/1999/xlink">
<g id="graph0" class="graph" transform="scale(1 1) rotate(0) translate(4 207)">
<title>dependencies</title>
<polygon fill="#ffffff" stroke="transparent" points="-4,4 -4,-207 703,-207 703,4 -4,4"/>
<text text-anchor="start" x="328.5091" y="-42.4" font-family="sans-serif" font-weight="bold" font-size="14.00" fill="#000000">Legend</text>
<polygon fill="#ffffb3" stroke="transparent" points="115.5,-10 115.5,-30 135.5,-30 135.5,-10 115.5,-10"/>
<text text-anchor="start" x="139.129" y="-15.4" font-family="sans-serif" font-size="14.00" fill="#000000"> &#160;Declarations</text>
<polygon fill="#8dd3c7" stroke="transparent" points="228.5,-10 228.5,-30 248.5,-30 248.5,-10 228.5,-10"/>
<text text-anchor="start" x="252.2251" y="-15.4" font-family="sans-serif" font-size="14.00" fill="#000000"> &#160;Module</text>
<polygon fill="#80b1d3" stroke="transparent" points="314.5,-10 314.5,-30 334.5,-30 334.5,-10 314.5,-10"/>
<text text-anchor="start" x="338.2812" y="-15.4" font-family="sans-serif" font-size="14.00" fill="#000000"> &#160;Bootstrap</text>
<polygon fill="#fdb462" stroke="transparent" points="411.5,-10 411.5,-30 431.5,-30 431.5,-10 411.5,-10"/>
<text text-anchor="start" x="435.1732" y="-15.4" font-family="sans-serif" font-size="14.00" fill="#000000"> &#160;Providers</text>
<polygon fill="#fb8072" stroke="transparent" points="507.5,-10 507.5,-30 527.5,-30 527.5,-10 507.5,-10"/>
<text text-anchor="start" x="531.2258" y="-15.4" font-family="sans-serif" font-size="14.00" fill="#000000"> &#160;Exports</text>
<g id="clust1" class="cluster">
<title>cluster_JourneysModule</title>
<polygon fill="none" stroke="#000000" stroke-dasharray="1,5" points="8,-70 8,-195 691,-195 691,-70 8,-70"/>
</g>
<g id="clust2" class="cluster">
<title>cluster_JourneysModule_declarations</title>
<polygon fill="none" stroke="#000000" points="328,-78 328,-130 683,-130 683,-78 328,-78"/>
</g>
<g id="clust5" class="cluster">
<title>cluster_JourneysModule_imports</title>
<polygon fill="none" stroke="#000000" points="16,-78 16,-130 320,-130 320,-78 16,-78"/>
</g>
<!-- JourneyListComponent -->
<g id="node1" class="node">
<title>JourneyListComponent</title>
<polygon fill="#ffffb3" stroke="#000000" points="674.9312,-122 527.0688,-122 527.0688,-86 674.9312,-86 674.9312,-122"/>
<text text-anchor="middle" x="601" y="-99.8" font-family="Times,serif" font-size="14.00" fill="#000000">JourneyListComponent</text>
</g>
<!-- JourneysModule -->
<g id="node3" class="node">
<title>JourneysModule</title>
<polygon fill="#8dd3c7" stroke="#000000" points="392.8147,-187 389.8147,-191 368.8147,-191 365.8147,-187 283.1853,-187 283.1853,-151 392.8147,-151 392.8147,-187"/>
<text text-anchor="middle" x="338" y="-164.8" font-family="Times,serif" font-size="14.00" fill="#000000">JourneysModule</text>
</g>
<!-- JourneyListComponent&#45;&gt;JourneysModule -->
<g id="edge1" class="edge">
<title>JourneyListComponent&#45;&gt;JourneysModule</title>
<path fill="none" stroke="#000000" d="M601,-122.1061C601,-141.3391 601,-169 601,-169 601,-169 402.8133,-169 402.8133,-169"/>
<polygon fill="#000000" stroke="#000000" points="402.8133,-165.5001 392.8133,-169 402.8132,-172.5001 402.8133,-165.5001"/>
</g>
<!-- JourneyListItemComponent -->
<g id="node2" class="node">
<title>JourneyListItemComponent</title>
<polygon fill="#ffffb3" stroke="#000000" points="509.587,-122 336.413,-122 336.413,-86 509.587,-86 509.587,-122"/>
<text text-anchor="middle" x="423" y="-99.8" font-family="Times,serif" font-size="14.00" fill="#000000">JourneyListItemComponent</text>
</g>
<!-- JourneyListItemComponent&#45;&gt;JourneysModule -->
<g id="edge2" class="edge">
<title>JourneyListItemComponent&#45;&gt;JourneysModule</title>
<path fill="none" stroke="#000000" d="M364.5568,-122.1061C364.5568,-122.1061 364.5568,-140.991 364.5568,-140.991"/>
<polygon fill="#000000" stroke="#000000" points="361.0569,-140.9909 364.5568,-150.991 368.0569,-140.991 361.0569,-140.9909"/>
</g>
<!-- ApiTokenModule -->
<g id="node4" class="node">
<title>ApiTokenModule</title>
<polygon fill="#8dd3c7" stroke="#000000" points="312.3146,-122 309.3146,-126 288.3146,-126 285.3146,-122 195.6854,-122 195.6854,-86 312.3146,-86 312.3146,-122"/>
<text text-anchor="middle" x="254" y="-99.8" font-family="Times,serif" font-size="14.00" fill="#000000">ApiTokenModule</text>
</g>
<!-- ApiTokenModule&#45;&gt;JourneysModule -->
<g id="edge3" class="edge">
<title>ApiTokenModule&#45;&gt;JourneysModule</title>
<path fill="none" stroke="#000000" d="M297.75,-122.1061C297.75,-122.1061 297.75,-140.991 297.75,-140.991"/>
<polygon fill="#000000" stroke="#000000" points="294.2501,-140.9909 297.75,-150.991 301.2501,-140.991 294.2501,-140.9909"/>
</g>
<!-- JourneysRoutingModule -->
<g id="node5" class="node">
<title>JourneysRoutingModule</title>
<polygon fill="#8dd3c7" stroke="#000000" points="178.4326,-122 175.4326,-126 154.4326,-126 151.4326,-122 23.5674,-122 23.5674,-86 178.4326,-86 178.4326,-122"/>
<text text-anchor="middle" x="101" y="-99.8" font-family="Times,serif" font-size="14.00" fill="#000000">JourneysRoutingModule</text>
</g>
<!-- JourneysRoutingModule&#45;&gt;JourneysModule -->
<g id="edge4" class="edge">
<title>JourneysRoutingModule&#45;&gt;JourneysModule</title>
<path fill="none" stroke="#000000" d="M101,-122.1061C101,-141.3391 101,-169 101,-169 101,-169 273.3298,-169 273.3298,-169"/>
<polygon fill="#000000" stroke="#000000" points="273.3299,-172.5001 283.3298,-169 273.3298,-165.5001 273.3299,-172.5001"/>
</g>
</g>
</svg>
