<?xml version="1.0" encoding="UTF-8" standalone="no"?>
<!DOCTYPE svg PUBLIC "-//W3C//DTD SVG 1.1//EN"
 "http://www.w3.org/Graphics/SVG/1.1/DTD/svg11.dtd">
<!-- Generated by graphviz version 2.40.1 (20161225.0304)
 -->
<!-- Title: dependencies Pages: 1 -->
<svg width="618pt" height="284pt"
 viewBox="0.00 0.00 618.00 284.00" xmlns="http://www.w3.org/2000/svg" xmlns:xlink="http://www.w3.org/1999/xlink">
<g id="graph0" class="graph" transform="scale(1 1) rotate(0) translate(4 280)">
<title>dependencies</title>
<polygon fill="#ffffff" stroke="transparent" points="-4,4 -4,-280 614,-280 614,4 -4,4"/>
<text text-anchor="start" x="284.0091" y="-42.4" font-family="sans-serif" font-weight="bold" font-size="14.00" fill="#000000">Legend</text>
<polygon fill="#ffffb3" stroke="transparent" points="71,-10 71,-30 91,-30 91,-10 71,-10"/>
<text text-anchor="start" x="94.629" y="-15.4" font-family="sans-serif" font-size="14.00" fill="#000000"> &#160;Declarations</text>
<polygon fill="#8dd3c7" stroke="transparent" points="184,-10 184,-30 204,-30 204,-10 184,-10"/>
<text text-anchor="start" x="207.7251" y="-15.4" font-family="sans-serif" font-size="14.00" fill="#000000"> &#160;Module</text>
<polygon fill="#80b1d3" stroke="transparent" points="270,-10 270,-30 290,-30 290,-10 270,-10"/>
<text text-anchor="start" x="293.7812" y="-15.4" font-family="sans-serif" font-size="14.00" fill="#000000"> &#160;Bootstrap</text>
<polygon fill="#fdb462" stroke="transparent" points="367,-10 367,-30 387,-30 387,-10 367,-10"/>
<text text-anchor="start" x="390.6732" y="-15.4" font-family="sans-serif" font-size="14.00" fill="#000000"> &#160;Providers</text>
<polygon fill="#fb8072" stroke="transparent" points="463,-10 463,-30 483,-30 483,-10 463,-10"/>
<text text-anchor="start" x="486.7258" y="-15.4" font-family="sans-serif" font-size="14.00" fill="#000000"> &#160;Exports</text>
<g id="clust1" class="cluster">
<title>cluster_ApiTokenModule</title>
<polygon fill="none" stroke="#000000" stroke-dasharray="1,5" points="8,-70 8,-268 602,-268 602,-70 8,-70"/>
</g>
<g id="clust2" class="cluster">
<title>cluster_ApiTokenModule_declarations</title>
<polygon fill="none" stroke="#000000" points="202,-78 202,-130 594,-130 594,-78 202,-78"/>
</g>
<g id="clust5" class="cluster">
<title>cluster_ApiTokenModule_imports</title>
<polygon fill="none" stroke="#000000" points="16,-78 16,-130 194,-130 194,-78 16,-78"/>
</g>
<g id="clust6" class="cluster">
<title>cluster_ApiTokenModule_exports</title>
<polygon fill="none" stroke="#000000" points="215,-208 215,-260 399,-260 399,-208 215,-208"/>
</g>
<!-- JourneySearchComponent -->
<g id="node1" class="node">
<title>JourneySearchComponent</title>
<polygon fill="#ffffb3" stroke="#000000" points="585.7394,-122 422.2606,-122 422.2606,-86 585.7394,-86 585.7394,-122"/>
<text text-anchor="middle" x="504" y="-99.8" font-family="Times,serif" font-size="14.00" fill="#000000">JourneySearchComponent</text>
</g>
<!-- ApiTokenModule -->
<g id="node3" class="node">
<title>ApiTokenModule</title>
<polygon fill="#8dd3c7" stroke="#000000" points="365.3146,-187 362.3146,-191 341.3146,-191 338.3146,-187 248.6854,-187 248.6854,-151 365.3146,-151 365.3146,-187"/>
<text text-anchor="middle" x="307" y="-164.8" font-family="Times,serif" font-size="14.00" fill="#000000">ApiTokenModule</text>
</g>
<!-- JourneySearchComponent&#45;&gt;ApiTokenModule -->
<g id="edge1" class="edge">
<title>JourneySearchComponent&#45;&gt;ApiTokenModule</title>
<path fill="none" stroke="#000000" d="M504,-122.1061C504,-141.3391 504,-169 504,-169 504,-169 375.3069,-169 375.3069,-169"/>
<polygon fill="#000000" stroke="#000000" points="375.3069,-165.5001 365.3069,-169 375.3069,-172.5001 375.3069,-165.5001"/>
</g>
<!-- JourneySearchFormComponent -->
<g id="node2" class="node">
<title>JourneySearchFormComponent</title>
<polygon fill="#ffffb3" stroke="#000000" points="404.073,-122 209.927,-122 209.927,-86 404.073,-86 404.073,-122"/>
<text text-anchor="middle" x="307" y="-99.8" font-family="Times,serif" font-size="14.00" fill="#000000">JourneySearchFormComponent</text>
</g>
<!-- JourneySearchFormComponent&#45;&gt;ApiTokenModule -->
<g id="edge2" class="edge">
<title>JourneySearchFormComponent&#45;&gt;ApiTokenModule</title>
<path fill="none" stroke="#000000" d="M307,-122.1061C307,-122.1061 307,-140.991 307,-140.991"/>
<polygon fill="#000000" stroke="#000000" points="303.5001,-140.9909 307,-150.991 310.5001,-140.991 303.5001,-140.9909"/>
</g>
<!-- JourneySearchComponent  -->
<g id="node5" class="node">
<title>JourneySearchComponent </title>
<polygon fill="#fb8072" stroke="#000000" points="390.7394,-252 223.2606,-252 223.2606,-216 390.7394,-216 390.7394,-252"/>
<text text-anchor="middle" x="307" y="-229.8" font-family="Times,serif" font-size="14.00" fill="#000000">JourneySearchComponent </text>
</g>
<!-- ApiTokenModule&#45;&gt;JourneySearchComponent  -->
<g id="edge4" class="edge">
<title>ApiTokenModule&#45;&gt;JourneySearchComponent </title>
<path fill="none" stroke="#000000" stroke-dasharray="5,2" d="M307,-187.1061C307,-187.1061 307,-205.991 307,-205.991"/>
<polygon fill="#000000" stroke="#000000" points="303.5001,-205.9909 307,-215.991 310.5001,-205.991 303.5001,-205.9909"/>
</g>
<!-- ApiTokenRoutingModule -->
<g id="node4" class="node">
<title>ApiTokenRoutingModule</title>
<polygon fill="#8dd3c7" stroke="#000000" points="185.9326,-122 182.9326,-126 161.9326,-126 158.9326,-122 24.0674,-122 24.0674,-86 185.9326,-86 185.9326,-122"/>
<text text-anchor="middle" x="105" y="-99.8" font-family="Times,serif" font-size="14.00" fill="#000000">ApiTokenRoutingModule</text>
</g>
<!-- ApiTokenRoutingModule&#45;&gt;ApiTokenModule -->
<g id="edge3" class="edge">
<title>ApiTokenRoutingModule&#45;&gt;ApiTokenModule</title>
<path fill="none" stroke="#000000" d="M105,-122.1061C105,-141.3391 105,-169 105,-169 105,-169 238.5732,-169 238.5732,-169"/>
<polygon fill="#000000" stroke="#000000" points="238.5733,-172.5001 248.5732,-169 238.5732,-165.5001 238.5733,-172.5001"/>
</g>
</g>
</svg>
