<?xml version="1.0" encoding="UTF-8" standalone="no"?>
<!DOCTYPE svg PUBLIC "-//W3C//DTD SVG 1.1//EN"
 "http://www.w3.org/Graphics/SVG/1.1/DTD/svg11.dtd">
<!-- Generated by graphviz version 2.40.1 (20161225.0304)
 -->
<!-- Title: dependencies Pages: 1 -->
<svg width="568pt" height="211pt"
 viewBox="0.00 0.00 568.00 211.00" xmlns="http://www.w3.org/2000/svg" xmlns:xlink="http://www.w3.org/1999/xlink">
<g id="graph0" class="graph" transform="scale(1 1) rotate(0) translate(4 207)">
<title>dependencies</title>
<polygon fill="#ffffff" stroke="transparent" points="-4,4 -4,-207 564,-207 564,4 -4,4"/>
<text text-anchor="start" x="259.0091" y="-42.4" font-family="sans-serif" font-weight="bold" font-size="14.00" fill="#000000">Legend</text>
<polygon fill="#ffffb3" stroke="transparent" points="46,-10 46,-30 66,-30 66,-10 46,-10"/>
<text text-anchor="start" x="69.629" y="-15.4" font-family="sans-serif" font-size="14.00" fill="#000000"> &#160;Declarations</text>
<polygon fill="#8dd3c7" stroke="transparent" points="159,-10 159,-30 179,-30 179,-10 159,-10"/>
<text text-anchor="start" x="182.7251" y="-15.4" font-family="sans-serif" font-size="14.00" fill="#000000"> &#160;Module</text>
<polygon fill="#80b1d3" stroke="transparent" points="245,-10 245,-30 265,-30 265,-10 245,-10"/>
<text text-anchor="start" x="268.7812" y="-15.4" font-family="sans-serif" font-size="14.00" fill="#000000"> &#160;Bootstrap</text>
<polygon fill="#fdb462" stroke="transparent" points="342,-10 342,-30 362,-30 362,-10 342,-10"/>
<text text-anchor="start" x="365.6732" y="-15.4" font-family="sans-serif" font-size="14.00" fill="#000000"> &#160;Providers</text>
<polygon fill="#fb8072" stroke="transparent" points="438,-10 438,-30 458,-30 458,-10 438,-10"/>
<text text-anchor="start" x="461.7258" y="-15.4" font-family="sans-serif" font-size="14.00" fill="#000000"> &#160;Exports</text>
<g id="clust1" class="cluster">
<title>cluster_CoreModule</title>
<polygon fill="none" stroke="#000000" stroke-dasharray="1,5" points="8,-70 8,-195 552,-195 552,-70 8,-70"/>
</g>
<g id="clust2" class="cluster">
<title>cluster_CoreModule_declarations</title>
<polygon fill="none" stroke="#000000" points="420,-78 420,-130 544,-130 544,-78 420,-78"/>
</g>
<g id="clust4" class="cluster">
<title>cluster_CoreModule_imports</title>
<polygon fill="none" stroke="#000000" points="16,-78 16,-130 412,-130 412,-78 16,-78"/>
</g>
<!-- CoreComponent -->
<g id="node1" class="node">
<title>CoreComponent</title>
<polygon fill="#ffffb3" stroke="#000000" points="536.0452,-122 427.9548,-122 427.9548,-86 536.0452,-86 536.0452,-122"/>
<text text-anchor="middle" x="482" y="-99.8" font-family="Times,serif" font-size="14.00" fill="#000000">CoreComponent</text>
</g>
<!-- CoreModule -->
<g id="node2" class="node">
<title>CoreModule</title>
<polygon fill="#8dd3c7" stroke="#000000" points="307.2619,-187 304.2619,-191 283.2619,-191 280.2619,-187 220.7381,-187 220.7381,-151 307.2619,-151 307.2619,-187"/>
<text text-anchor="middle" x="264" y="-164.8" font-family="Times,serif" font-size="14.00" fill="#000000">CoreModule</text>
</g>
<!-- CoreComponent&#45;&gt;CoreModule -->
<g id="edge1" class="edge">
<title>CoreComponent&#45;&gt;CoreModule</title>
<path fill="none" stroke="#000000" d="M482,-122.1061C482,-141.3391 482,-169 482,-169 482,-169 317.3304,-169 317.3304,-169"/>
<polygon fill="#000000" stroke="#000000" points="317.3305,-165.5001 307.3304,-169 317.3304,-172.5001 317.3305,-165.5001"/>
</g>
<!-- CoreRoutingModule -->
<g id="node3" class="node">
<title>CoreRoutingModule</title>
<polygon fill="#8dd3c7" stroke="#000000" points="403.8795,-122 400.8795,-126 379.8795,-126 376.8795,-122 272.1205,-122 272.1205,-86 403.8795,-86 403.8795,-122"/>
<text text-anchor="middle" x="338" y="-99.8" font-family="Times,serif" font-size="14.00" fill="#000000">CoreRoutingModule</text>
</g>
<!-- CoreRoutingModule&#45;&gt;CoreModule -->
<g id="edge2" class="edge">
<title>CoreRoutingModule&#45;&gt;CoreModule</title>
<path fill="none" stroke="#000000" d="M289.7206,-122.1061C289.7206,-122.1061 289.7206,-140.991 289.7206,-140.991"/>
<polygon fill="#000000" stroke="#000000" points="286.2206,-140.9909 289.7206,-150.991 293.2206,-140.991 286.2206,-140.9909"/>
</g>
<!-- SharedCoreModule -->
<g id="node4" class="node">
<title>SharedCoreModule</title>
<polygon fill="#8dd3c7" stroke="#000000" points="253.6345,-122 250.6345,-126 229.6345,-126 226.6345,-122 128.3655,-122 128.3655,-86 253.6345,-86 253.6345,-122"/>
<text text-anchor="middle" x="191" y="-99.8" font-family="Times,serif" font-size="14.00" fill="#000000">SharedCoreModule</text>
</g>
<!-- SharedCoreModule&#45;&gt;CoreModule -->
<g id="edge3" class="edge">
<title>SharedCoreModule&#45;&gt;CoreModule</title>
<path fill="none" stroke="#000000" d="M237.2181,-122.1061C237.2181,-122.1061 237.2181,-140.991 237.2181,-140.991"/>
<polygon fill="#000000" stroke="#000000" points="233.7182,-140.9909 237.2181,-150.991 240.7182,-140.991 233.7182,-140.9909"/>
</g>
<!-- StartModule -->
<g id="node5" class="node">
<title>StartModule</title>
<polygon fill="#8dd3c7" stroke="#000000" points="109.9888,-122 106.9888,-126 85.9888,-126 82.9888,-122 24.0112,-122 24.0112,-86 109.9888,-86 109.9888,-122"/>
<text text-anchor="middle" x="67" y="-99.8" font-family="Times,serif" font-size="14.00" fill="#000000">StartModule</text>
</g>
<!-- StartModule&#45;&gt;CoreModule -->
<g id="edge4" class="edge">
<title>StartModule&#45;&gt;CoreModule</title>
<path fill="none" stroke="#000000" d="M67,-122.1061C67,-141.3391 67,-169 67,-169 67,-169 210.2793,-169 210.2793,-169"/>
<polygon fill="#000000" stroke="#000000" points="210.2793,-172.5001 220.2793,-169 210.2793,-165.5001 210.2793,-172.5001"/>
</g>
</g>
</svg>
