<?xml version="1.0" encoding="UTF-8" standalone="no"?>
<!DOCTYPE svg PUBLIC "-//W3C//DTD SVG 1.1//EN"
 "http://www.w3.org/Graphics/SVG/1.1/DTD/svg11.dtd">
<!-- Generated by graphviz version 2.40.1 (20161225.0304)
 -->
<!-- Title: dependencies Pages: 1 -->
<svg width="1014pt" height="211pt"
 viewBox="0.00 0.00 1014.00 211.00" xmlns="http://www.w3.org/2000/svg" xmlns:xlink="http://www.w3.org/1999/xlink">
<g id="graph0" class="graph" transform="scale(1 1) rotate(0) translate(4 207)">
<title>dependencies</title>
<polygon fill="#ffffff" stroke="transparent" points="-4,4 -4,-207 1010,-207 1010,4 -4,4"/>
<text text-anchor="start" x="482.0091" y="-42.4" font-family="sans-serif" font-weight="bold" font-size="14.00" fill="#000000">Legend</text>
<polygon fill="#ffffb3" stroke="transparent" points="269,-10 269,-30 289,-30 289,-10 269,-10"/>
<text text-anchor="start" x="292.629" y="-15.4" font-family="sans-serif" font-size="14.00" fill="#000000"> &#160;Declarations</text>
<polygon fill="#8dd3c7" stroke="transparent" points="382,-10 382,-30 402,-30 402,-10 382,-10"/>
<text text-anchor="start" x="405.7251" y="-15.4" font-family="sans-serif" font-size="14.00" fill="#000000"> &#160;Module</text>
<polygon fill="#80b1d3" stroke="transparent" points="468,-10 468,-30 488,-30 488,-10 468,-10"/>
<text text-anchor="start" x="491.7812" y="-15.4" font-family="sans-serif" font-size="14.00" fill="#000000"> &#160;Bootstrap</text>
<polygon fill="#fdb462" stroke="transparent" points="565,-10 565,-30 585,-30 585,-10 565,-10"/>
<text text-anchor="start" x="588.6732" y="-15.4" font-family="sans-serif" font-size="14.00" fill="#000000"> &#160;Providers</text>
<polygon fill="#fb8072" stroke="transparent" points="661,-10 661,-30 681,-30 681,-10 661,-10"/>
<text text-anchor="start" x="684.7258" y="-15.4" font-family="sans-serif" font-size="14.00" fill="#000000"> &#160;Exports</text>
<g id="clust1" class="cluster">
<title>cluster_CoreModule</title>
<polygon fill="none" stroke="#000000" stroke-dasharray="1,5" points="8,-70 8,-195 998,-195 998,-70 8,-70"/>
</g>
<g id="clust2" class="cluster">
<title>cluster_CoreModule_declarations</title>
<polygon fill="none" stroke="#000000" points="446,-78 446,-130 990,-130 990,-78 446,-78"/>
</g>
<g id="clust7" class="cluster">
<title>cluster_CoreModule_imports</title>
<polygon fill="none" stroke="#000000" points="16,-78 16,-130 438,-130 438,-78 16,-78"/>
</g>
<!-- CoreComponent -->
<g id="node1" class="node">
<title>CoreComponent</title>
<polygon fill="#ffffb3" stroke="#000000" points="982.0452,-122 873.9548,-122 873.9548,-86 982.0452,-86 982.0452,-122"/>
<text text-anchor="middle" x="928" y="-99.8" font-family="Times,serif" font-size="14.00" fill="#000000">CoreComponent</text>
</g>
<!-- CoreModule -->
<g id="node5" class="node">
<title>CoreModule</title>
<polygon fill="#8dd3c7" stroke="#000000" points="556.2619,-187 553.2619,-191 532.2619,-191 529.2619,-187 469.7381,-187 469.7381,-151 556.2619,-151 556.2619,-187"/>
<text text-anchor="middle" x="513" y="-164.8" font-family="Times,serif" font-size="14.00" fill="#000000">CoreModule</text>
</g>
<!-- CoreComponent&#45;&gt;CoreModule -->
<g id="edge1" class="edge">
<title>CoreComponent&#45;&gt;CoreModule</title>
<path fill="none" stroke="#000000" d="M928,-122.2921C928,-144.2057 928,-178 928,-178 928,-178 566.6279,-178 566.6279,-178"/>
<polygon fill="#000000" stroke="#000000" points="566.6279,-174.5001 556.6279,-178 566.6279,-181.5001 566.6279,-174.5001"/>
</g>
<!-- HeaderComponent -->
<g id="node2" class="node">
<title>HeaderComponent</title>
<polygon fill="#ffffb3" stroke="#000000" points="855.7437,-122 734.2563,-122 734.2563,-86 855.7437,-86 855.7437,-122"/>
<text text-anchor="middle" x="795" y="-99.8" font-family="Times,serif" font-size="14.00" fill="#000000">HeaderComponent</text>
</g>
<!-- HeaderComponent&#45;&gt;CoreModule -->
<g id="edge2" class="edge">
<title>HeaderComponent&#45;&gt;CoreModule</title>
<path fill="none" stroke="#000000" d="M795,-122.1061C795,-141.3391 795,-169 795,-169 795,-169 566.4445,-169 566.4445,-169"/>
<polygon fill="#000000" stroke="#000000" points="566.4445,-165.5001 556.4445,-169 566.4445,-172.5001 566.4445,-165.5001"/>
</g>
<!-- SidenavComponent -->
<g id="node3" class="node">
<title>SidenavComponent</title>
<polygon fill="#ffffb3" stroke="#000000" points="716.4356,-122 589.5644,-122 589.5644,-86 716.4356,-86 716.4356,-122"/>
<text text-anchor="middle" x="653" y="-99.8" font-family="Times,serif" font-size="14.00" fill="#000000">SidenavComponent</text>
</g>
<!-- SidenavComponent&#45;&gt;CoreModule -->
<g id="edge3" class="edge">
<title>SidenavComponent&#45;&gt;CoreModule</title>
<path fill="none" stroke="#000000" d="M653,-122.027C653,-138.3976 653,-160 653,-160 653,-160 566.5295,-160 566.5295,-160"/>
<polygon fill="#000000" stroke="#000000" points="566.5295,-156.5001 556.5295,-160 566.5294,-163.5001 566.5295,-156.5001"/>
</g>
<!-- FooterComponent -->
<g id="node4" class="node">
<title>FooterComponent</title>
<polygon fill="#ffffb3" stroke="#000000" points="571.8809,-122 454.1191,-122 454.1191,-86 571.8809,-86 571.8809,-122"/>
<text text-anchor="middle" x="513" y="-99.8" font-family="Times,serif" font-size="14.00" fill="#000000">FooterComponent</text>
</g>
<!-- FooterComponent&#45;&gt;CoreModule -->
<g id="edge4" class="edge">
<title>FooterComponent&#45;&gt;CoreModule</title>
<path fill="none" stroke="#000000" d="M513,-122.1061C513,-122.1061 513,-140.991 513,-140.991"/>
<polygon fill="#000000" stroke="#000000" points="509.5001,-140.9909 513,-150.991 516.5001,-140.991 509.5001,-140.9909"/>
</g>
<!-- CommonModule -->
<g id="node6" class="node">
<title>CommonModule</title>
<polygon fill="#8dd3c7" stroke="#000000" points="429.6681,-122 426.6681,-126 405.6681,-126 402.6681,-122 318.3319,-122 318.3319,-86 429.6681,-86 429.6681,-122"/>
<text text-anchor="middle" x="374" y="-99.8" font-family="Times,serif" font-size="14.00" fill="#000000">CommonModule</text>
</g>
<!-- CommonModule&#45;&gt;CoreModule -->
<g id="edge5" class="edge">
<title>CommonModule&#45;&gt;CoreModule</title>
<path fill="none" stroke="#000000" d="M374,-122.027C374,-138.3976 374,-160 374,-160 374,-160 459.4009,-160 459.4009,-160"/>
<polygon fill="#000000" stroke="#000000" points="459.4009,-163.5001 469.4009,-160 459.4009,-156.5001 459.4009,-163.5001"/>
</g>
<!-- CoreRoutingModule -->
<g id="node7" class="node">
<title>CoreRoutingModule</title>
<polygon fill="#8dd3c7" stroke="#000000" points="299.8795,-122 296.8795,-126 275.8795,-126 272.8795,-122 168.1205,-122 168.1205,-86 299.8795,-86 299.8795,-122"/>
<text text-anchor="middle" x="234" y="-99.8" font-family="Times,serif" font-size="14.00" fill="#000000">CoreRoutingModule</text>
</g>
<!-- CoreRoutingModule&#45;&gt;CoreModule -->
<g id="edge6" class="edge">
<title>CoreRoutingModule&#45;&gt;CoreModule</title>
<path fill="none" stroke="#000000" d="M234,-122.1061C234,-141.3391 234,-169 234,-169 234,-169 459.7124,-169 459.7124,-169"/>
<polygon fill="#000000" stroke="#000000" points="459.7124,-172.5001 469.7124,-169 459.7123,-165.5001 459.7124,-172.5001"/>
</g>
<!-- SharedCoreModule -->
<g id="node8" class="node">
<title>SharedCoreModule</title>
<polygon fill="#8dd3c7" stroke="#000000" points="149.6345,-122 146.6345,-126 125.6345,-126 122.6345,-122 24.3655,-122 24.3655,-86 149.6345,-86 149.6345,-122"/>
<text text-anchor="middle" x="87" y="-99.8" font-family="Times,serif" font-size="14.00" fill="#000000">SharedCoreModule</text>
</g>
<!-- SharedCoreModule&#45;&gt;CoreModule -->
<g id="edge7" class="edge">
<title>SharedCoreModule&#45;&gt;CoreModule</title>
<path fill="none" stroke="#000000" d="M87,-122.2921C87,-144.2057 87,-178 87,-178 87,-178 459.4125,-178 459.4125,-178"/>
<polygon fill="#000000" stroke="#000000" points="459.4125,-181.5001 469.4125,-178 459.4125,-174.5001 459.4125,-181.5001"/>
</g>
</g>
</svg>
