<?xml version="1.0" encoding="UTF-8" standalone="no"?>
<!DOCTYPE svg PUBLIC "-//W3C//DTD SVG 1.1//EN"
 "http://www.w3.org/Graphics/SVG/1.1/DTD/svg11.dtd">
<!-- Generated by graphviz version 2.40.1 (20161225.0304)
 -->
<!-- Title: dependencies Pages: 1 -->
<svg width="4404pt" height="366pt"
 viewBox="0.00 0.00 4404.00 366.00" xmlns="http://www.w3.org/2000/svg" xmlns:xlink="http://www.w3.org/1999/xlink">
<g id="graph0" class="graph" transform="scale(1 1) rotate(0) translate(4 362)">
<title>dependencies</title>
<polygon fill="#ffffff" stroke="transparent" points="-4,4 -4,-362 4400,-362 4400,4 -4,4"/>
<text text-anchor="start" x="2177.0091" y="-42.4" font-family="sans-serif" font-weight="bold" font-size="14.00" fill="#000000">Legend</text>
<polygon fill="#ffffb3" stroke="transparent" points="1964,-10 1964,-30 1984,-30 1984,-10 1964,-10"/>
<text text-anchor="start" x="1987.629" y="-15.4" font-family="sans-serif" font-size="14.00" fill="#000000"> &#160;Declarations</text>
<polygon fill="#8dd3c7" stroke="transparent" points="2077,-10 2077,-30 2097,-30 2097,-10 2077,-10"/>
<text text-anchor="start" x="2100.7251" y="-15.4" font-family="sans-serif" font-size="14.00" fill="#000000"> &#160;Module</text>
<polygon fill="#80b1d3" stroke="transparent" points="2163,-10 2163,-30 2183,-30 2183,-10 2163,-10"/>
<text text-anchor="start" x="2186.7812" y="-15.4" font-family="sans-serif" font-size="14.00" fill="#000000"> &#160;Bootstrap</text>
<polygon fill="#fdb462" stroke="transparent" points="2260,-10 2260,-30 2280,-30 2280,-10 2260,-10"/>
<text text-anchor="start" x="2283.6732" y="-15.4" font-family="sans-serif" font-size="14.00" fill="#000000"> &#160;Providers</text>
<polygon fill="#fb8072" stroke="transparent" points="2356,-10 2356,-30 2376,-30 2376,-10 2356,-10"/>
<text text-anchor="start" x="2379.7258" y="-15.4" font-family="sans-serif" font-size="14.00" fill="#000000"> &#160;Exports</text>
<g id="clust1" class="cluster">
<title>cluster_AdminModule</title>
<polygon fill="none" stroke="#000000" stroke-dasharray="1,5" points="2052,-70 2052,-206 2358,-206 2358,-70 2052,-70"/>
</g>
<g id="clust3" class="cluster">
<title>cluster_AdminModule_imports</title>
<polygon fill="none" stroke="#000000" points="2060,-78 2060,-130 2350,-130 2350,-78 2060,-78"/>
</g>
<g id="clust7" class="cluster">
<title>cluster_AdminRoutingModule</title>
<polygon fill="none" stroke="#000000" stroke-dasharray="1,5" points="3068,-146 3068,-214 3408,-214 3408,-146 3068,-146"/>
</g>
<g id="clust9" class="cluster">
<title>cluster_AdminRoutingModule_imports</title>
<polygon fill="none" stroke="#000000" points="3202,-154 3202,-206 3400,-206 3400,-154 3202,-154"/>
</g>
<g id="clust10" class="cluster">
<title>cluster_AdminRoutingModule_exports</title>
<polygon fill="none" stroke="#000000" points="3076,-154 3076,-206 3194,-206 3194,-154 3076,-154"/>
</g>
<g id="clust13" class="cluster">
<title>cluster_AngularMaterialModule</title>
<polygon fill="none" stroke="#000000" stroke-dasharray="1,5" points="8,-70 8,-282 208,-282 208,-70 8,-70"/>
</g>
<g id="clust15" class="cluster">
<title>cluster_AngularMaterialModule_imports</title>
<polygon fill="none" stroke="#000000" points="19,-78 19,-130 199,-130 199,-78 19,-78"/>
</g>
<g id="clust16" class="cluster">
<title>cluster_AngularMaterialModule_exports</title>
<polygon fill="none" stroke="#000000" points="16,-222 16,-274 200,-274 200,-222 16,-222"/>
</g>
<g id="clust19" class="cluster">
<title>cluster_AppModule</title>
<polygon fill="none" stroke="#000000" stroke-dasharray="1,5" points="562,-146 562,-350 2044,-350 2044,-146 562,-146"/>
</g>
<g id="clust20" class="cluster">
<title>cluster_AppModule_declarations</title>
<polygon fill="none" stroke="#000000" points="1914,-154 1914,-206 2036,-206 2036,-154 1914,-154"/>
</g>
<g id="clust22" class="cluster">
<title>cluster_AppModule_imports</title>
<polygon fill="none" stroke="#000000" points="570,-154 570,-206 1906,-206 1906,-154 570,-154"/>
</g>
<g id="clust24" class="cluster">
<title>cluster_AppModule_bootstrap</title>
<polygon fill="none" stroke="#000000" points="1196,-290 1196,-342 1320,-342 1320,-290 1196,-290"/>
</g>
<g id="clust26" class="cluster">
<title>cluster_AppRoutingModule</title>
<polygon fill="none" stroke="#000000" stroke-dasharray="1,5" points="1153,-70 1153,-138 1363,-138 1363,-70 1153,-70"/>
</g>
<g id="clust28" class="cluster">
<title>cluster_AppRoutingModule_imports</title>
<polygon fill="none" stroke="#000000" points="1161,-78 1161,-130 1355,-130 1355,-78 1161,-78"/>
</g>
<g id="clust32" class="cluster">
<title>cluster_CoreAngularMaterialModule</title>
<polygon fill="none" stroke="#000000" stroke-dasharray="1,5" points="2366,-70 2366,-282 2594,-282 2594,-70 2366,-70"/>
</g>
<g id="clust34" class="cluster">
<title>cluster_CoreAngularMaterialModule_imports</title>
<polygon fill="none" stroke="#000000" points="2375,-78 2375,-130 2583,-130 2583,-78 2375,-78"/>
</g>
<g id="clust35" class="cluster">
<title>cluster_CoreAngularMaterialModule_exports</title>
<polygon fill="none" stroke="#000000" points="2374,-222 2374,-274 2586,-274 2586,-222 2374,-222"/>
</g>
<g id="clust38" class="cluster">
<title>cluster_CoreModule</title>
<polygon fill="none" stroke="#000000" stroke-dasharray="1,5" points="638,-70 638,-138 1078,-138 1078,-70 638,-70"/>
</g>
<g id="clust39" class="cluster">
<title>cluster_CoreModule_declarations</title>
<polygon fill="none" stroke="#000000" points="946,-78 946,-130 1070,-130 1070,-78 946,-78"/>
</g>
<g id="clust41" class="cluster">
<title>cluster_CoreModule_imports</title>
<polygon fill="none" stroke="#000000" points="646,-78 646,-130 938,-130 938,-78 646,-78"/>
</g>
<g id="clust45" class="cluster">
<title>cluster_JourneyListModule</title>
<polygon fill="none" stroke="#000000" stroke-dasharray="1,5" points="2602,-70 2602,-206 2804,-206 2804,-70 2602,-70"/>
</g>
<g id="clust47" class="cluster">
<title>cluster_JourneyListModule_imports</title>
<polygon fill="none" stroke="#000000" points="2610,-78 2610,-130 2796,-130 2796,-78 2610,-78"/>
</g>
<g id="clust57" class="cluster">
<title>cluster_JourneyListSettingsModule</title>
<polygon fill="none" stroke="#000000" stroke-dasharray="1,5" points="2812,-70 2812,-206 3060,-206 3060,-70 2812,-70"/>
</g>
<g id="clust59" class="cluster">
<title>cluster_JourneyListSettingsModule_imports</title>
<polygon fill="none" stroke="#000000" points="2820,-78 2820,-130 3052,-130 3052,-78 2820,-78"/>
</g>
<g id="clust69" class="cluster">
<title>cluster_JourneysModule</title>
<polygon fill="none" stroke="#000000" stroke-dasharray="1,5" points="3416,-70 3416,-206 4016,-206 4016,-70 3416,-70"/>
</g>
<g id="clust71" class="cluster">
<title>cluster_JourneysModule_imports</title>
<polygon fill="none" stroke="#000000" points="3424,-78 3424,-130 4008,-130 4008,-78 3424,-78"/>
</g>
<g id="clust81" class="cluster">
<title>cluster_SharedCoreModule</title>
<polygon fill="none" stroke="#000000" stroke-dasharray="1,5" points="216,-146 216,-214 554,-214 554,-146 216,-146"/>
</g>
<g id="clust83" class="cluster">
<title>cluster_SharedCoreModule_imports</title>
<polygon fill="none" stroke="#000000" points="390,-154 390,-206 546,-206 546,-154 390,-154"/>
</g>
<g id="clust84" class="cluster">
<title>cluster_SharedCoreModule_exports</title>
<polygon fill="none" stroke="#000000" points="224,-154 224,-206 382,-206 382,-154 224,-154"/>
</g>
<g id="clust87" class="cluster">
<title>cluster_SharedModule</title>
<polygon fill="none" stroke="#000000" stroke-dasharray="1,5" points="4024,-70 4024,-282 4172,-282 4172,-70 4024,-70"/>
</g>
<g id="clust89" class="cluster">
<title>cluster_SharedModule_imports</title>
<polygon fill="none" stroke="#000000" points="4033,-78 4033,-130 4161,-130 4161,-78 4033,-78"/>
</g>
<g id="clust90" class="cluster">
<title>cluster_SharedModule_exports</title>
<polygon fill="none" stroke="#000000" points="4032,-222 4032,-274 4164,-274 4164,-222 4032,-222"/>
</g>
<g id="clust93" class="cluster">
<title>cluster_TravelPointsModule</title>
<polygon fill="none" stroke="#000000" stroke-dasharray="1,5" points="4180,-70 4180,-206 4388,-206 4388,-70 4180,-70"/>
</g>
<g id="clust95" class="cluster">
<title>cluster_TravelPointsModule_imports</title>
<polygon fill="none" stroke="#000000" points="4188,-78 4188,-130 4380,-130 4380,-78 4188,-78"/>
</g>
<!-- CommonModule -->
<g id="node1" class="node">
<title>CommonModule</title>
<polygon fill="#8dd3c7" stroke="#000000" points="2179.6681,-122 2176.6681,-126 2155.6681,-126 2152.6681,-122 2068.3319,-122 2068.3319,-86 2179.6681,-86 2179.6681,-122"/>
<text text-anchor="middle" x="2124" y="-99.8" font-family="Times,serif" font-size="14.00" fill="#000000">CommonModule</text>
</g>
<!-- AdminModule -->
<g id="node3" class="node">
<title>AdminModule</title>
<polygon fill="#8dd3c7" stroke="#000000" points="2246.4386,-198 2243.4386,-202 2222.4386,-202 2219.4386,-198 2147.5614,-198 2147.5614,-162 2246.4386,-162 2246.4386,-198"/>
<text text-anchor="middle" x="2197" y="-175.8" font-family="Times,serif" font-size="14.00" fill="#000000">AdminModule</text>
</g>
<!-- CommonModule&#45;&gt;AdminModule -->
<g id="edge1" class="edge">
<title>CommonModule&#45;&gt;AdminModule</title>
<path fill="none" stroke="#000000" d="M2151.7878,-122.0109C2151.7878,-122.0109 2151.7878,-151.855 2151.7878,-151.855"/>
<polygon fill="#000000" stroke="#000000" points="2148.2879,-151.8549 2151.7878,-161.855 2155.2879,-151.855 2148.2879,-151.8549"/>
</g>
<!-- AngularMaterialModule -->
<g id="node7" class="node">
<title>AngularMaterialModule</title>
<polygon fill="#8dd3c7" stroke="#000000" points="185.3431,-198 182.3431,-202 161.3431,-202 158.3431,-198 32.6569,-198 32.6569,-162 185.3431,-162 185.3431,-198"/>
<text text-anchor="middle" x="109" y="-175.8" font-family="Times,serif" font-size="14.00" fill="#000000">AngularMaterialModule</text>
</g>
<!-- CommonModule&#45;&gt;AngularMaterialModule -->
<g id="edge5" class="edge">
<title>CommonModule&#45;&gt;AngularMaterialModule</title>
<path fill="none" stroke="#000000" d="M2107.9737,-122.1686C2107.9737,-126.0459 2107.9737,-129 2107.9737,-129 2107.9737,-129 134.4738,-129 134.4738,-129 134.4738,-129 134.4738,-151.8757 134.4738,-151.8757"/>
<polygon fill="#000000" stroke="#000000" points="130.9739,-151.8757 134.4738,-161.8757 137.9739,-151.8757 130.9739,-151.8757"/>
</g>
<!-- CoreModule -->
<g id="node14" class="node">
<title>CoreModule</title>
<polygon fill="#8dd3c7" stroke="#000000" points="984.2619,-198 981.2619,-202 960.2619,-202 957.2619,-198 897.7381,-198 897.7381,-162 984.2619,-162 984.2619,-198"/>
<text text-anchor="middle" x="941" y="-175.8" font-family="Times,serif" font-size="14.00" fill="#000000">CoreModule</text>
</g>
<!-- CommonModule&#45;&gt;CoreModule -->
<g id="edge24" class="edge">
<title>CommonModule&#45;&gt;CoreModule</title>
<path fill="none" stroke="#000000" d="M2127.8775,-122.1592C2127.8775,-127.0433 2127.8775,-131 2127.8775,-131 2127.8775,-131 974.1632,-131 974.1632,-131 974.1632,-131 974.1632,-151.7542 974.1632,-151.7542"/>
<polygon fill="#000000" stroke="#000000" points="970.6633,-151.7542 974.1632,-161.7542 977.6633,-151.7542 970.6633,-151.7542"/>
</g>
<!-- CoreAngularMaterialModule -->
<g id="node22" class="node">
<title>CoreAngularMaterialModule</title>
<polygon fill="#8dd3c7" stroke="#000000" points="2569.0548,-198 2566.0548,-202 2545.0548,-202 2542.0548,-198 2388.9452,-198 2388.9452,-162 2569.0548,-162 2569.0548,-198"/>
<text text-anchor="middle" x="2479" y="-175.8" font-family="Times,serif" font-size="14.00" fill="#000000">CoreAngularMaterialModule</text>
</g>
<!-- CommonModule&#45;&gt;CoreAngularMaterialModule -->
<g id="edge20" class="edge">
<title>CommonModule&#45;&gt;CoreAngularMaterialModule</title>
<path fill="none" stroke="#000000" d="M2155.7944,-122.2819C2155.7944,-137.9478 2155.7944,-158 2155.7944,-158 2155.7944,-158 2448.9909,-158 2448.9909,-158 2448.9909,-158 2448.9909,-158.3832 2448.9909,-158.3832"/>
<polygon fill="#000000" stroke="#000000" points="2445.4912,-151.832 2448.9909,-161.8321 2452.4912,-151.8322 2445.4912,-151.832"/>
</g>
<!-- SharedCoreModule -->
<g id="node26" class="node">
<title>SharedCoreModule</title>
<polygon fill="#8dd3c7" stroke="#000000" points="779.6345,-122 776.6345,-126 755.6345,-126 752.6345,-122 654.3655,-122 654.3655,-86 779.6345,-86 779.6345,-122"/>
<text text-anchor="middle" x="717" y="-99.8" font-family="Times,serif" font-size="14.00" fill="#000000">SharedCoreModule</text>
</g>
<!-- CommonModule&#45;&gt;SharedCoreModule -->
<g id="edge41" class="edge">
<title>CommonModule&#45;&gt;SharedCoreModule</title>
<path fill="none" stroke="#000000" d="M2088.07,-122.1223C2088.07,-124.9729 2088.07,-127 2088.07,-127 2088.07,-127 769.4247,-127 769.4247,-127 769.4247,-127 769.4247,-126.5122 769.4247,-126.5122"/>
<polygon fill="#000000" stroke="#000000" points="772.925,-132.1222 769.4247,-122.1223 765.925,-132.1224 772.925,-132.1222"/>
</g>
<!-- JourneyListModule -->
<g id="node28" class="node">
<title>JourneyListModule</title>
<polygon fill="#8dd3c7" stroke="#000000" points="2750.6485,-198 2747.6485,-202 2726.6485,-202 2723.6485,-198 2625.3515,-198 2625.3515,-162 2750.6485,-162 2750.6485,-198"/>
<text text-anchor="middle" x="2688" y="-175.8" font-family="Times,serif" font-size="14.00" fill="#000000">JourneyListModule</text>
</g>
<!-- CommonModule&#45;&gt;JourneyListModule -->
<g id="edge27" class="edge">
<title>CommonModule&#45;&gt;JourneyListModule</title>
<path fill="none" stroke="#000000" d="M2159.8009,-122.1871C2159.8009,-137.1824 2159.8009,-156 2159.8009,-156 2159.8009,-156 2667.0587,-156 2667.0587,-156 2667.0587,-156 2667.0587,-156.581 2667.0587,-156.581"/>
<polygon fill="#000000" stroke="#000000" points="2663.5589,-151.8097 2667.0587,-161.8097 2670.5589,-151.8098 2663.5589,-151.8097"/>
</g>
<!-- JourneyListSettingsModule -->
<g id="node30" class="node">
<title>JourneyListSettingsModule</title>
<polygon fill="#8dd3c7" stroke="#000000" points="3005.2618,-198 3002.2618,-202 2981.2618,-202 2978.2618,-198 2834.7382,-198 2834.7382,-162 3005.2618,-162 3005.2618,-198"/>
<text text-anchor="middle" x="2920" y="-175.8" font-family="Times,serif" font-size="14.00" fill="#000000">JourneyListSettingsModule</text>
</g>
<!-- CommonModule&#45;&gt;JourneyListSettingsModule -->
<g id="edge31" class="edge">
<title>CommonModule&#45;&gt;JourneyListSettingsModule</title>
<path fill="none" stroke="#000000" d="M2163.8075,-122.0511C2163.8075,-136.373 2163.8075,-154 2163.8075,-154 2163.8075,-154 2891.5397,-154 2891.5397,-154 2891.5397,-154 2891.5397,-154.7942 2891.5397,-154.7942"/>
<polygon fill="#000000" stroke="#000000" points="2888.0399,-151.9421 2891.5397,-161.9421 2895.0399,-151.9422 2888.0399,-151.9421"/>
</g>
<!-- JourneysModule -->
<g id="node34" class="node">
<title>JourneysModule</title>
<polygon fill="#8dd3c7" stroke="#000000" points="3659.8147,-198 3656.8147,-202 3635.8147,-202 3632.8147,-198 3550.1853,-198 3550.1853,-162 3659.8147,-162 3659.8147,-198"/>
<text text-anchor="middle" x="3605" y="-175.8" font-family="Times,serif" font-size="14.00" fill="#000000">JourneysModule</text>
</g>
<!-- CommonModule&#45;&gt;JourneysModule -->
<g id="edge35" class="edge">
<title>CommonModule&#45;&gt;JourneysModule</title>
<path fill="none" stroke="#000000" d="M2167.8141,-122.1467C2167.8141,-135.7395 2167.8141,-152 2167.8141,-152 2167.8141,-152 3562.3006,-152 3562.3006,-152 3562.3006,-152 3562.3006,-152.9793 3562.3006,-152.9793"/>
<polygon fill="#000000" stroke="#000000" points="3558.8007,-151.793 3562.3006,-161.793 3565.8007,-151.7931 3558.8007,-151.793"/>
</g>
<!-- SharedModule -->
<g id="node38" class="node">
<title>SharedModule</title>
<polygon fill="#8dd3c7" stroke="#000000" points="4146.4231,-198 4143.4231,-202 4122.4231,-202 4119.4231,-198 4047.5769,-198 4047.5769,-162 4146.4231,-162 4146.4231,-198"/>
<text text-anchor="middle" x="4097" y="-175.8" font-family="Times,serif" font-size="14.00" fill="#000000">SharedModule</text>
</g>
<!-- CommonModule&#45;&gt;SharedModule -->
<g id="edge44" class="edge">
<title>CommonModule&#45;&gt;SharedModule</title>
<path fill="none" stroke="#000000" d="M2171.8207,-122.1804C2171.8207,-135.0382 2171.8207,-150 2171.8207,-150 2171.8207,-150 4080.5963,-150 4080.5963,-150 4080.5963,-150 4080.5963,-151.8568 4080.5963,-151.8568"/>
<polygon fill="#000000" stroke="#000000" points="4077.0964,-151.8568 4080.5963,-161.8568 4084.0964,-151.8568 4077.0964,-151.8568"/>
</g>
<!-- TravelPointsModule -->
<g id="node41" class="node">
<title>TravelPointsModule</title>
<polygon fill="#8dd3c7" stroke="#000000" points="4319.5912,-198 4316.5912,-202 4295.5912,-202 4292.5912,-198 4188.4088,-198 4188.4088,-162 4319.5912,-162 4319.5912,-198"/>
<text text-anchor="middle" x="4254" y="-175.8" font-family="Times,serif" font-size="14.00" fill="#000000">TravelPointsModule</text>
</g>
<!-- CommonModule&#45;&gt;TravelPointsModule -->
<g id="edge47" class="edge">
<title>CommonModule&#45;&gt;TravelPointsModule</title>
<path fill="none" stroke="#000000" d="M2175.8272,-122.08C2175.8272,-123.8464 2175.8272,-125 2175.8272,-125 2175.8272,-125 4220.6255,-125 4220.6255,-125 4220.6255,-125 4220.6255,-151.9909 4220.6255,-151.9909"/>
<polygon fill="#000000" stroke="#000000" points="4217.1256,-151.9909 4220.6255,-161.9909 4224.1256,-151.991 4217.1256,-151.9909"/>
</g>
<!-- AdminRoutingModule -->
<g id="node2" class="node">
<title>AdminRoutingModule</title>
<polygon fill="#8dd3c7" stroke="#000000" points="2341.5561,-122 2338.5561,-126 2317.5561,-126 2314.5561,-122 2198.4439,-122 2198.4439,-86 2341.5561,-86 2341.5561,-122"/>
<text text-anchor="middle" x="2270" y="-99.8" font-family="Times,serif" font-size="14.00" fill="#000000">AdminRoutingModule</text>
</g>
<!-- AdminRoutingModule&#45;&gt;AdminModule -->
<g id="edge2" class="edge">
<title>AdminRoutingModule&#45;&gt;AdminModule</title>
<path fill="none" stroke="#000000" d="M2222.2206,-122.0109C2222.2206,-122.0109 2222.2206,-151.855 2222.2206,-151.855"/>
<polygon fill="#000000" stroke="#000000" points="2218.7206,-151.8549 2222.2206,-161.855 2225.7206,-151.855 2218.7206,-151.8549"/>
</g>
<!-- RouterModule  -->
<g id="node5" class="node">
<title>RouterModule </title>
<polygon fill="#fb8072" stroke="#000000" points="3185.6523,-198 3084.3477,-198 3084.3477,-162 3185.6523,-162 3185.6523,-198"/>
<text text-anchor="middle" x="3135" y="-175.8" font-family="Times,serif" font-size="14.00" fill="#000000">RouterModule </text>
</g>
<!-- AdminRoutingModule&#45;&gt;RouterModule  -->
<g id="edge4" class="edge">
<title>AdminRoutingModule&#45;&gt;RouterModule </title>
<path fill="none" stroke="#000000" stroke-dasharray="5,2" d="M2309.9247,-122.1274C2309.9247,-132.7109 2309.9247,-144 2309.9247,-144 2309.9247,-144 3104.6543,-144 3104.6543,-144 3104.6543,-144 3104.6543,-151.5782 3104.6543,-151.5782"/>
<polygon fill="#000000" stroke="#000000" points="3101.1544,-151.5781 3104.6543,-161.5782 3108.1544,-151.5782 3101.1544,-151.5781"/>
</g>
<!-- RouterModule.forChild(args) -->
<g id="node4" class="node">
<title>RouterModule.forChild(args)</title>
<polygon fill="#8dd3c7" stroke="#000000" points="3391.7323,-198 3388.7323,-202 3367.7323,-202 3364.7323,-198 3210.2677,-198 3210.2677,-162 3391.7323,-162 3391.7323,-198"/>
<text text-anchor="middle" x="3301" y="-175.8" font-family="Times,serif" font-size="14.00" fill="#000000">RouterModule.forChild(args)</text>
</g>
<!-- RouterModule.forChild(args)&#45;&gt;AdminRoutingModule -->
<g id="edge3" class="edge">
<title>RouterModule.forChild(args)&#45;&gt;AdminRoutingModule</title>
<path fill="none" stroke="#000000" d="M3282.8768,-161.8975C3282.8768,-150.9141 3282.8768,-139 3282.8768,-139 3282.8768,-139 2278.0718,-139 2278.0718,-139 2278.0718,-139 2278.0718,-132.32 2278.0718,-132.32"/>
<polygon fill="#000000" stroke="#000000" points="2281.5719,-132.32 2278.0718,-122.32 2274.5719,-132.3201 2281.5719,-132.32"/>
</g>
<!-- JourneyListRoutingModule -->
<g id="node27" class="node">
<title>JourneyListRoutingModule</title>
<polygon fill="#8dd3c7" stroke="#000000" points="2788.266,-122 2785.266,-126 2764.266,-126 2761.266,-122 2617.734,-122 2617.734,-86 2788.266,-86 2788.266,-122"/>
<text text-anchor="middle" x="2703" y="-99.8" font-family="Times,serif" font-size="14.00" fill="#000000">JourneyListRoutingModule</text>
</g>
<!-- RouterModule.forChild(args)&#45;&gt;JourneyListRoutingModule -->
<g id="edge29" class="edge">
<title>RouterModule.forChild(args)&#45;&gt;JourneyListRoutingModule</title>
<path fill="none" stroke="#000000" d="M3319.1232,-161.5146C3319.1232,-149.8601 3319.1232,-137 3319.1232,-137 3319.1232,-137 2763.3436,-137 2763.3436,-137 2763.3436,-137 2763.3436,-132.0449 2763.3436,-132.0449"/>
<polygon fill="#000000" stroke="#000000" points="2766.8437,-132.0448 2763.3436,-122.0449 2759.8437,-132.0449 2766.8437,-132.0448"/>
</g>
<!-- JourneyListSettingsRoutingModule -->
<g id="node29" class="node">
<title>JourneyListSettingsRoutingModule</title>
<polygon fill="#8dd3c7" stroke="#000000" points="3043.8794,-122 3040.8794,-126 3019.8794,-126 3016.8794,-122 2828.1206,-122 2828.1206,-86 3043.8794,-86 3043.8794,-122"/>
<text text-anchor="middle" x="2936" y="-99.8" font-family="Times,serif" font-size="14.00" fill="#000000">JourneyListSettingsRoutingModule</text>
</g>
<!-- RouterModule.forChild(args)&#45;&gt;JourneyListSettingsRoutingModule -->
<g id="edge33" class="edge">
<title>RouterModule.forChild(args)&#45;&gt;JourneyListSettingsRoutingModule</title>
<path fill="none" stroke="#000000" d="M3246.6303,-161.9733C3246.6303,-141.2328 3246.6303,-110 3246.6303,-110 3246.6303,-110 3054.2073,-110 3054.2073,-110"/>
<polygon fill="#000000" stroke="#000000" points="3054.2074,-106.5001 3044.2073,-110 3054.2073,-113.5001 3054.2074,-106.5001"/>
</g>
<!-- JourneysRoutingModule -->
<g id="node31" class="node">
<title>JourneysRoutingModule</title>
<polygon fill="#8dd3c7" stroke="#000000" points="3586.4326,-122 3583.4326,-126 3562.4326,-126 3559.4326,-122 3431.5674,-122 3431.5674,-86 3586.4326,-86 3586.4326,-122"/>
<text text-anchor="middle" x="3509" y="-99.8" font-family="Times,serif" font-size="14.00" fill="#000000">JourneysRoutingModule</text>
</g>
<!-- RouterModule.forChild(args)&#45;&gt;JourneysRoutingModule -->
<g id="edge39" class="edge">
<title>RouterModule.forChild(args)&#45;&gt;JourneysRoutingModule</title>
<path fill="none" stroke="#000000" d="M3391.8567,-180C3440.7227,-180 3491.0635,-180 3491.0635,-180 3491.0635,-180 3491.0635,-132.0109 3491.0635,-132.0109"/>
<polygon fill="#000000" stroke="#000000" points="3494.5635,-132.0109 3491.0635,-122.0109 3487.5635,-132.011 3494.5635,-132.0109"/>
</g>
<!-- TravelPointsRoutingModule -->
<g id="node40" class="node">
<title>TravelPointsRoutingModule</title>
<polygon fill="#8dd3c7" stroke="#000000" points="4372.2091,-122 4369.2091,-126 4348.2091,-126 4345.2091,-122 4195.7909,-122 4195.7909,-86 4372.2091,-86 4372.2091,-122"/>
<text text-anchor="middle" x="4284" y="-99.8" font-family="Times,serif" font-size="14.00" fill="#000000">TravelPointsRoutingModule</text>
</g>
<!-- RouterModule.forChild(args)&#45;&gt;TravelPointsRoutingModule -->
<g id="edge51" class="edge">
<title>RouterModule.forChild(args)&#45;&gt;TravelPointsRoutingModule</title>
<path fill="none" stroke="#000000" d="M3355.3697,-161.9561C3355.3697,-149.4367 3355.3697,-135 3355.3697,-135 3355.3697,-135 4270.0856,-135 4270.0856,-135 4270.0856,-135 4270.0856,-132.0328 4270.0856,-132.0328"/>
<polygon fill="#000000" stroke="#000000" points="4273.5857,-132.0328 4270.0856,-122.0328 4266.5857,-132.0329 4273.5857,-132.0328"/>
</g>
<!-- ...angularMaterialModules -->
<g id="node6" class="node">
<title>...angularMaterialModules</title>
<polygon fill="#8dd3c7" stroke="#000000" points="191.3956,-122 188.3956,-126 167.3956,-126 164.3956,-122 26.6044,-122 26.6044,-86 191.3956,-86 191.3956,-122"/>
<text text-anchor="middle" x="109" y="-99.8" font-family="Times,serif" font-size="14.00" fill="#000000">...angularMaterialModules</text>
</g>
<!-- ...angularMaterialModules&#45;&gt;AngularMaterialModule -->
<g id="edge6" class="edge">
<title>...angularMaterialModules&#45;&gt;AngularMaterialModule</title>
<path fill="none" stroke="#000000" d="M83.5262,-122.0109C83.5262,-122.0109 83.5262,-151.855 83.5262,-151.855"/>
<polygon fill="#000000" stroke="#000000" points="80.0263,-151.8549 83.5262,-161.855 87.0263,-151.855 80.0263,-151.8549"/>
</g>
<!-- ...angularMaterialModules  -->
<g id="node8" class="node">
<title>...angularMaterialModules </title>
<polygon fill="#fb8072" stroke="#000000" points="192.3961,-266 23.6039,-266 23.6039,-230 192.3961,-230 192.3961,-266"/>
<text text-anchor="middle" x="108" y="-243.8" font-family="Times,serif" font-size="14.00" fill="#000000">...angularMaterialModules </text>
</g>
<!-- AngularMaterialModule&#45;&gt;...angularMaterialModules  -->
<g id="edge7" class="edge">
<title>AngularMaterialModule&#45;&gt;...angularMaterialModules </title>
<path fill="none" stroke="#000000" stroke-dasharray="5,2" d="M109,-198.2228C109,-198.2228 109,-219.7269 109,-219.7269"/>
<polygon fill="#000000" stroke="#000000" points="105.5001,-219.7269 109,-229.7269 112.5001,-219.727 105.5001,-219.7269"/>
</g>
<!-- AppComponent -->
<g id="node9" class="node">
<title>AppComponent</title>
<polygon fill="#ffffb3" stroke="#000000" points="2027.9399,-198 1922.0601,-198 1922.0601,-162 2027.9399,-162 2027.9399,-198"/>
<text text-anchor="middle" x="1975" y="-175.8" font-family="Times,serif" font-size="14.00" fill="#000000">AppComponent</text>
</g>
<!-- AppModule -->
<g id="node10" class="node">
<title>AppModule</title>
<polygon fill="#8dd3c7" stroke="#000000" points="1299.6571,-266 1296.6571,-270 1275.6571,-270 1272.6571,-266 1216.3429,-266 1216.3429,-230 1299.6571,-230 1299.6571,-266"/>
<text text-anchor="middle" x="1258" y="-243.8" font-family="Times,serif" font-size="14.00" fill="#000000">AppModule</text>
</g>
<!-- AppComponent&#45;&gt;AppModule -->
<g id="edge8" class="edge">
<title>AppComponent&#45;&gt;AppModule</title>
<path fill="none" stroke="#000000" d="M1975,-198.3228C1975,-221.6602 1975,-259 1975,-259 1975,-259 1309.9111,-259 1309.9111,-259"/>
<polygon fill="#000000" stroke="#000000" points="1309.9111,-255.5001 1299.9111,-259 1309.911,-262.5001 1309.9111,-255.5001"/>
</g>
<!-- AppComponent  -->
<g id="node19" class="node">
<title>AppComponent </title>
<polygon fill="#80b1d3" stroke="#000000" points="1312.439,-334 1203.561,-334 1203.561,-298 1312.439,-298 1312.439,-334"/>
<text text-anchor="middle" x="1258" y="-311.8" font-family="Times,serif" font-size="14.00" fill="#000000">AppComponent </text>
</g>
<!-- AppModule&#45;&gt;AppComponent  -->
<g id="edge17" class="edge">
<title>AppModule&#45;&gt;AppComponent </title>
<path fill="none" stroke="#000000" stroke-dasharray="1,5" d="M1258,-266.2228C1258,-266.2228 1258,-287.7269 1258,-287.7269"/>
<polygon fill="#000000" stroke="#000000" points="1254.5001,-287.7269 1258,-297.7269 1261.5001,-287.727 1254.5001,-287.7269"/>
</g>
<!-- BrowserModule -->
<g id="node11" class="node">
<title>BrowserModule</title>
<polygon fill="#8dd3c7" stroke="#000000" points="1447.4734,-198 1444.4734,-202 1423.4734,-202 1420.4734,-198 1340.5266,-198 1340.5266,-162 1447.4734,-162 1447.4734,-198"/>
<text text-anchor="middle" x="1394" y="-175.8" font-family="Times,serif" font-size="14.00" fill="#000000">BrowserModule</text>
</g>
<!-- BrowserModule&#45;&gt;AppModule -->
<g id="edge9" class="edge">
<title>BrowserModule&#45;&gt;AppModule</title>
<path fill="none" stroke="#000000" d="M1394,-198.0336C1394,-215.0597 1394,-238 1394,-238 1394,-238 1309.9142,-238 1309.9142,-238"/>
<polygon fill="#000000" stroke="#000000" points="1309.9142,-234.5001 1299.9142,-238 1309.9142,-241.5001 1309.9142,-234.5001"/>
</g>
<!-- AppRoutingModule -->
<g id="node12" class="node">
<title>AppRoutingModule</title>
<polygon fill="#8dd3c7" stroke="#000000" points="1322.2744,-198 1319.2744,-202 1298.2744,-202 1295.2744,-198 1193.7256,-198 1193.7256,-162 1322.2744,-162 1322.2744,-198"/>
<text text-anchor="middle" x="1258" y="-175.8" font-family="Times,serif" font-size="14.00" fill="#000000">AppRoutingModule</text>
</g>
<!-- AppRoutingModule&#45;&gt;RouterModule  -->
<g id="edge19" class="edge">
<title>AppRoutingModule&#45;&gt;RouterModule </title>
<path fill="none" stroke="#000000" stroke-dasharray="5,2" d="M1317.4283,-198.1944C1317.4283,-206.2782 1317.4283,-214 1317.4283,-214 1317.4283,-214 3135,-214 3135,-214 3135,-214 3135,-208.1944 3135,-208.1944"/>
<polygon fill="#000000" stroke="#000000" points="3138.5001,-208.1944 3135,-198.1944 3131.5001,-208.1945 3138.5001,-208.1944"/>
</g>
<!-- AppRoutingModule&#45;&gt;AppModule -->
<g id="edge10" class="edge">
<title>AppRoutingModule&#45;&gt;AppModule</title>
<path fill="none" stroke="#000000" d="M1258,-198.2228C1258,-198.2228 1258,-219.7269 1258,-219.7269"/>
<polygon fill="#000000" stroke="#000000" points="1254.5001,-219.7269 1258,-229.7269 1261.5001,-219.727 1254.5001,-219.7269"/>
</g>
<!-- BrowserAnimationsModule -->
<g id="node13" class="node">
<title>BrowserAnimationsModule</title>
<polygon fill="#8dd3c7" stroke="#000000" points="1175.3019,-198 1172.3019,-202 1151.3019,-202 1148.3019,-198 1002.6981,-198 1002.6981,-162 1175.3019,-162 1175.3019,-198"/>
<text text-anchor="middle" x="1089" y="-175.8" font-family="Times,serif" font-size="14.00" fill="#000000">BrowserAnimationsModule</text>
</g>
<!-- BrowserAnimationsModule&#45;&gt;AppModule -->
<g id="edge11" class="edge">
<title>BrowserAnimationsModule&#45;&gt;AppModule</title>
<path fill="none" stroke="#000000" d="M1089,-198.0336C1089,-215.0597 1089,-238 1089,-238 1089,-238 1206.2247,-238 1206.2247,-238"/>
<polygon fill="#000000" stroke="#000000" points="1206.2247,-241.5001 1216.2247,-238 1206.2247,-234.5001 1206.2247,-241.5001"/>
</g>
<!-- CoreModule&#45;&gt;AppModule -->
<g id="edge12" class="edge">
<title>CoreModule&#45;&gt;AppModule</title>
<path fill="none" stroke="#000000" d="M941,-198.1061C941,-217.3391 941,-245 941,-245 941,-245 1206.2318,-245 1206.2318,-245"/>
<polygon fill="#000000" stroke="#000000" points="1206.2318,-248.5001 1216.2318,-245 1206.2318,-241.5001 1206.2318,-248.5001"/>
</g>
<!-- QuicklinkModule -->
<g id="node15" class="node">
<title>QuicklinkModule</title>
<polygon fill="#8dd3c7" stroke="#000000" points="879.5437,-198 876.5437,-202 855.5437,-202 852.5437,-198 764.4563,-198 764.4563,-162 879.5437,-162 879.5437,-198"/>
<text text-anchor="middle" x="822" y="-175.8" font-family="Times,serif" font-size="14.00" fill="#000000">QuicklinkModule</text>
</g>
<!-- QuicklinkModule&#45;&gt;AppModule -->
<g id="edge13" class="edge">
<title>QuicklinkModule&#45;&gt;AppModule</title>
<path fill="none" stroke="#000000" d="M822,-198.1686C822,-219.498 822,-252 822,-252 822,-252 1206.1945,-252 1206.1945,-252"/>
<polygon fill="#000000" stroke="#000000" points="1206.1945,-255.5001 1216.1945,-252 1206.1945,-248.5001 1206.1945,-255.5001"/>
</g>
<!-- StoreModule.forRoot(args) -->
<g id="node16" class="node">
<title>StoreModule.forRoot(args)</title>
<polygon fill="#8dd3c7" stroke="#000000" points="746.2877,-198 743.2877,-202 722.2877,-202 719.2877,-198 577.7123,-198 577.7123,-162 746.2877,-162 746.2877,-198"/>
<text text-anchor="middle" x="662" y="-175.8" font-family="Times,serif" font-size="14.00" fill="#000000">StoreModule.forRoot(args)</text>
</g>
<!-- StoreModule.forRoot(args)&#45;&gt;AppModule -->
<g id="edge14" class="edge">
<title>StoreModule.forRoot(args)&#45;&gt;AppModule</title>
<path fill="none" stroke="#000000" d="M662,-198.3228C662,-221.6602 662,-259 662,-259 662,-259 1206.0904,-259 1206.0904,-259"/>
<polygon fill="#000000" stroke="#000000" points="1206.0905,-262.5001 1216.0904,-259 1206.0904,-255.5001 1206.0905,-262.5001"/>
</g>
<!-- StoreDevtoolsModule.instrument(args) -->
<g id="node17" class="node">
<title>StoreDevtoolsModule.instrument(args)</title>
<polygon fill="#8dd3c7" stroke="#000000" points="1897.6686,-198 1894.6686,-202 1873.6686,-202 1870.6686,-198 1662.3314,-198 1662.3314,-162 1897.6686,-162 1897.6686,-198"/>
<text text-anchor="middle" x="1780" y="-175.8" font-family="Times,serif" font-size="14.00" fill="#000000">StoreDevtoolsModule.instrument(args)</text>
</g>
<!-- StoreDevtoolsModule.instrument(args)&#45;&gt;AppModule -->
<g id="edge15" class="edge">
<title>StoreDevtoolsModule.instrument(args)&#45;&gt;AppModule</title>
<path fill="none" stroke="#000000" d="M1780,-198.1686C1780,-219.498 1780,-252 1780,-252 1780,-252 1309.8351,-252 1309.8351,-252"/>
<polygon fill="#000000" stroke="#000000" points="1309.8351,-248.5001 1299.8351,-252 1309.835,-255.5001 1309.8351,-248.5001"/>
</g>
<!-- EffectsModule.forRoot(args) -->
<g id="node18" class="node">
<title>EffectsModule.forRoot(args)</title>
<polygon fill="#8dd3c7" stroke="#000000" points="1644.3774,-198 1641.3774,-202 1620.3774,-202 1617.3774,-198 1465.6226,-198 1465.6226,-162 1644.3774,-162 1644.3774,-198"/>
<text text-anchor="middle" x="1555" y="-175.8" font-family="Times,serif" font-size="14.00" fill="#000000">EffectsModule.forRoot(args)</text>
</g>
<!-- EffectsModule.forRoot(args)&#45;&gt;AppModule -->
<g id="edge16" class="edge">
<title>EffectsModule.forRoot(args)&#45;&gt;AppModule</title>
<path fill="none" stroke="#000000" d="M1555,-198.1061C1555,-217.3391 1555,-245 1555,-245 1555,-245 1309.9229,-245 1309.9229,-245"/>
<polygon fill="#000000" stroke="#000000" points="1309.923,-241.5001 1299.9229,-245 1309.9229,-248.5001 1309.923,-241.5001"/>
</g>
<!-- RouterModule.forRoot(args) -->
<g id="node20" class="node">
<title>RouterModule.forRoot(args)</title>
<polygon fill="#8dd3c7" stroke="#000000" points="1346.8419,-122 1343.8419,-126 1322.8419,-126 1319.8419,-122 1169.1581,-122 1169.1581,-86 1346.8419,-86 1346.8419,-122"/>
<text text-anchor="middle" x="1258" y="-99.8" font-family="Times,serif" font-size="14.00" fill="#000000">RouterModule.forRoot(args)</text>
</g>
<!-- RouterModule.forRoot(args)&#45;&gt;AppRoutingModule -->
<g id="edge18" class="edge">
<title>RouterModule.forRoot(args)&#45;&gt;AppRoutingModule</title>
<path fill="none" stroke="#000000" d="M1258,-122.0109C1258,-122.0109 1258,-151.855 1258,-151.855"/>
<polygon fill="#000000" stroke="#000000" points="1254.5001,-151.8549 1258,-161.855 1261.5001,-151.855 1254.5001,-151.8549"/>
</g>
<!-- ...coreAngularMaterialModules -->
<g id="node21" class="node">
<title>...coreAngularMaterialModules</title>
<polygon fill="#8dd3c7" stroke="#000000" points="2575.3774,-122 2572.3774,-126 2551.3774,-126 2548.3774,-122 2382.6226,-122 2382.6226,-86 2575.3774,-86 2575.3774,-122"/>
<text text-anchor="middle" x="2479" y="-99.8" font-family="Times,serif" font-size="14.00" fill="#000000">...coreAngularMaterialModules</text>
</g>
<!-- ...coreAngularMaterialModules&#45;&gt;CoreAngularMaterialModule -->
<g id="edge21" class="edge">
<title>...coreAngularMaterialModules&#45;&gt;CoreAngularMaterialModule</title>
<path fill="none" stroke="#000000" d="M2509.0091,-122.0109C2509.0091,-122.0109 2509.0091,-151.855 2509.0091,-151.855"/>
<polygon fill="#000000" stroke="#000000" points="2505.5092,-151.8549 2509.0091,-161.855 2512.5092,-151.855 2505.5092,-151.8549"/>
</g>
<!-- ...coreAngularMaterialModules  -->
<g id="node23" class="node">
<title>...coreAngularMaterialModules </title>
<polygon fill="#fb8072" stroke="#000000" points="2578.3778,-266 2381.6222,-266 2381.6222,-230 2578.3778,-230 2578.3778,-266"/>
<text text-anchor="middle" x="2480" y="-243.8" font-family="Times,serif" font-size="14.00" fill="#000000">...coreAngularMaterialModules </text>
</g>
<!-- CoreAngularMaterialModule&#45;&gt;...coreAngularMaterialModules  -->
<g id="edge22" class="edge">
<title>CoreAngularMaterialModule&#45;&gt;...coreAngularMaterialModules </title>
<path fill="none" stroke="#000000" stroke-dasharray="5,2" d="M2479,-198.2228C2479,-198.2228 2479,-219.7269 2479,-219.7269"/>
<polygon fill="#000000" stroke="#000000" points="2475.5001,-219.7269 2479,-229.7269 2482.5001,-219.727 2475.5001,-219.7269"/>
</g>
<!-- CoreComponent -->
<g id="node24" class="node">
<title>CoreComponent</title>
<polygon fill="#ffffb3" stroke="#000000" points="1062.0452,-122 953.9548,-122 953.9548,-86 1062.0452,-86 1062.0452,-122"/>
<text text-anchor="middle" x="1008" y="-99.8" font-family="Times,serif" font-size="14.00" fill="#000000">CoreComponent</text>
</g>
<!-- CoreComponent&#45;&gt;CoreModule -->
<g id="edge23" class="edge">
<title>CoreComponent&#45;&gt;CoreModule</title>
<path fill="none" stroke="#000000" d="M963.9455,-122.0109C963.9455,-122.0109 963.9455,-151.855 963.9455,-151.855"/>
<polygon fill="#000000" stroke="#000000" points="960.4456,-151.8549 963.9455,-161.855 967.4456,-151.855 960.4456,-151.8549"/>
</g>
<!-- CoreRoutingModule -->
<g id="node25" class="node">
<title>CoreRoutingModule</title>
<polygon fill="#8dd3c7" stroke="#000000" points="929.8795,-122 926.8795,-126 905.8795,-126 902.8795,-122 798.1205,-122 798.1205,-86 929.8795,-86 929.8795,-122"/>
<text text-anchor="middle" x="864" y="-99.8" font-family="Times,serif" font-size="14.00" fill="#000000">CoreRoutingModule</text>
</g>
<!-- CoreRoutingModule&#45;&gt;CoreModule -->
<g id="edge25" class="edge">
<title>CoreRoutingModule&#45;&gt;CoreModule</title>
<path fill="none" stroke="#000000" d="M919.1662,-122.0109C919.1662,-122.0109 919.1662,-151.855 919.1662,-151.855"/>
<polygon fill="#000000" stroke="#000000" points="915.6663,-151.8549 919.1662,-161.855 922.6663,-151.855 915.6663,-151.8549"/>
</g>
<!-- SharedCoreModule&#45;&gt;CoreModule -->
<g id="edge26" class="edge">
<title>SharedCoreModule&#45;&gt;CoreModule</title>
<path fill="none" stroke="#000000" d="M774.6209,-122.027C774.6209,-138.3976 774.6209,-160 774.6209,-160 774.6209,-160 908.3927,-160 908.3927,-160 908.3927,-160 908.3927,-160.1846 908.3927,-160.1846"/>
<polygon fill="#000000" stroke="#000000" points="904.8933,-151.8455 908.3927,-161.8457 911.8933,-151.8459 904.8933,-151.8455"/>
</g>
<!-- ...sharedCoreModules  -->
<g id="node36" class="node">
<title>...sharedCoreModules </title>
<polygon fill="#fb8072" stroke="#000000" points="374.2408,-198 231.7592,-198 231.7592,-162 374.2408,-162 374.2408,-198"/>
<text text-anchor="middle" x="303" y="-175.8" font-family="Times,serif" font-size="14.00" fill="#000000">...sharedCoreModules </text>
</g>
<!-- SharedCoreModule&#45;&gt;...sharedCoreModules  -->
<g id="edge43" class="edge">
<title>SharedCoreModule&#45;&gt;...sharedCoreModules </title>
<path fill="none" stroke="#000000" stroke-dasharray="5,2" d="M654.1223,-98C538.3071,-98 303,-98 303,-98 303,-98 303,-151.8015 303,-151.8015"/>
<polygon fill="#000000" stroke="#000000" points="299.5001,-151.8015 303,-161.8015 306.5001,-151.8016 299.5001,-151.8015"/>
</g>
<!-- JourneyListRoutingModule&#45;&gt;RouterModule  -->
<g id="edge30" class="edge">
<title>JourneyListRoutingModule&#45;&gt;RouterModule </title>
<path fill="none" stroke="#000000" stroke-dasharray="5,2" d="M2775.8633,-122.0664C2775.8633,-131.4587 2775.8633,-141 2775.8633,-141 2775.8633,-141 3124.8848,-141 3124.8848,-141 3124.8848,-141 3124.8848,-151.8701 3124.8848,-151.8701"/>
<polygon fill="#000000" stroke="#000000" points="3121.3849,-151.8701 3124.8848,-161.8701 3128.3849,-151.8701 3121.3849,-151.8701"/>
</g>
<!-- JourneyListRoutingModule&#45;&gt;JourneyListModule -->
<g id="edge28" class="edge">
<title>JourneyListRoutingModule&#45;&gt;JourneyListModule</title>
<path fill="none" stroke="#000000" d="M2708.9413,-122.0109C2708.9413,-122.0109 2708.9413,-151.855 2708.9413,-151.855"/>
<polygon fill="#000000" stroke="#000000" points="2705.4414,-151.8549 2708.9413,-161.855 2712.4414,-151.855 2705.4414,-151.8549"/>
</g>
<!-- JourneyListSettingsRoutingModule&#45;&gt;RouterModule  -->
<g id="edge34" class="edge">
<title>JourneyListSettingsRoutingModule&#45;&gt;RouterModule </title>
<path fill="none" stroke="#000000" stroke-dasharray="5,2" d="M3024.6603,-122.0109C3024.6603,-144.4852 3024.6603,-180 3024.6603,-180 3024.6603,-180 3074.3513,-180 3074.3513,-180"/>
<polygon fill="#000000" stroke="#000000" points="3074.3513,-183.5001 3084.3513,-180 3074.3512,-176.5001 3074.3513,-183.5001"/>
</g>
<!-- JourneyListSettingsRoutingModule&#45;&gt;JourneyListSettingsModule -->
<g id="edge32" class="edge">
<title>JourneyListSettingsRoutingModule&#45;&gt;JourneyListSettingsModule</title>
<path fill="none" stroke="#000000" d="M2948.4603,-122.0109C2948.4603,-122.0109 2948.4603,-151.855 2948.4603,-151.855"/>
<polygon fill="#000000" stroke="#000000" points="2944.9604,-151.8549 2948.4603,-161.855 2951.9604,-151.855 2944.9604,-151.8549"/>
</g>
<!-- JourneysRoutingModule&#45;&gt;RouterModule  -->
<g id="edge40" class="edge">
<title>JourneysRoutingModule&#45;&gt;RouterModule </title>
<path fill="none" stroke="#000000" stroke-dasharray="5,2" d="M3431.3839,-98C3324.5149,-98 3145.1152,-98 3145.1152,-98 3145.1152,-98 3145.1152,-151.8015 3145.1152,-151.8015"/>
<polygon fill="#000000" stroke="#000000" points="3141.6153,-151.8015 3145.1152,-161.8015 3148.6153,-151.8016 3141.6153,-151.8015"/>
</g>
<!-- JourneysRoutingModule&#45;&gt;JourneysModule -->
<g id="edge36" class="edge">
<title>JourneysRoutingModule&#45;&gt;JourneysModule</title>
<path fill="none" stroke="#000000" d="M3574.2583,-122.0109C3574.2583,-122.0109 3574.2583,-151.855 3574.2583,-151.855"/>
<polygon fill="#000000" stroke="#000000" points="3570.7584,-151.8549 3574.2583,-161.855 3577.7584,-151.855 3570.7584,-151.8549"/>
</g>
<!-- StoreModule.forFeature(args) -->
<g id="node32" class="node">
<title>StoreModule.forFeature(args)</title>
<polygon fill="#8dd3c7" stroke="#000000" points="3999.5386,-122 3996.5386,-126 3975.5386,-126 3972.5386,-122 3816.4614,-122 3816.4614,-86 3999.5386,-86 3999.5386,-122"/>
<text text-anchor="middle" x="3908" y="-99.8" font-family="Times,serif" font-size="14.00" fill="#000000">StoreModule.forFeature(args)</text>
</g>
<!-- StoreModule.forFeature(args)&#45;&gt;JourneysModule -->
<g id="edge37" class="edge">
<title>StoreModule.forFeature(args)&#45;&gt;JourneysModule</title>
<path fill="none" stroke="#000000" d="M3938.5897,-122.0109C3938.5897,-144.4852 3938.5897,-180 3938.5897,-180 3938.5897,-180 3669.712,-180 3669.712,-180"/>
<polygon fill="#000000" stroke="#000000" points="3669.712,-176.5001 3659.712,-180 3669.712,-183.5001 3669.712,-176.5001"/>
</g>
<!-- StoreModule.forFeature(args)&#45;&gt;TravelPointsModule -->
<g id="edge49" class="edge">
<title>StoreModule.forFeature(args)&#45;&gt;TravelPointsModule</title>
<path fill="none" stroke="#000000" d="M3877.4103,-122.0555C3877.4103,-133.439 3877.4103,-146 3877.4103,-146 3877.4103,-146 4193.4151,-146 4193.4151,-146 4193.4151,-146 4193.4151,-151.8056 4193.4151,-151.8056"/>
<polygon fill="#000000" stroke="#000000" points="4189.9152,-151.8055 4193.4151,-161.8056 4196.9152,-151.8056 4189.9152,-151.8055"/>
</g>
<!-- EffectsModule.forFeature(args) -->
<g id="node33" class="node">
<title>EffectsModule.forFeature(args)</title>
<polygon fill="#8dd3c7" stroke="#000000" points="3797.6282,-122 3794.6282,-126 3773.6282,-126 3770.6282,-122 3604.3718,-122 3604.3718,-86 3797.6282,-86 3797.6282,-122"/>
<text text-anchor="middle" x="3701" y="-99.8" font-family="Times,serif" font-size="14.00" fill="#000000">EffectsModule.forFeature(args)</text>
</g>
<!-- EffectsModule.forFeature(args)&#45;&gt;JourneysModule -->
<g id="edge38" class="edge">
<title>EffectsModule.forFeature(args)&#45;&gt;JourneysModule</title>
<path fill="none" stroke="#000000" d="M3631.9216,-122.0109C3631.9216,-122.0109 3631.9216,-151.855 3631.9216,-151.855"/>
<polygon fill="#000000" stroke="#000000" points="3628.4217,-151.8549 3631.9216,-161.855 3635.4217,-151.855 3628.4217,-151.8549"/>
</g>
<!-- EffectsModule.forFeature(args)&#45;&gt;TravelPointsModule -->
<g id="edge50" class="edge">
<title>EffectsModule.forFeature(args)&#45;&gt;TravelPointsModule</title>
<path fill="none" stroke="#000000" d="M3728.7355,-122.1505C3728.7355,-134.2708 3728.7355,-148 3728.7355,-148 3728.7355,-148 4190.9348,-148 4190.9348,-148 4190.9348,-148 4190.9348,-151.7566 4190.9348,-151.7566"/>
<polygon fill="#000000" stroke="#000000" points="4187.4349,-151.7566 4190.9348,-161.7566 4194.4349,-151.7566 4187.4349,-151.7566"/>
</g>
<!-- ...sharedCoreModules -->
<g id="node35" class="node">
<title>...sharedCoreModules</title>
<polygon fill="#8dd3c7" stroke="#000000" points="537.7408,-198 534.7408,-202 513.7408,-202 510.7408,-198 398.2592,-198 398.2592,-162 537.7408,-162 537.7408,-198"/>
<text text-anchor="middle" x="468" y="-175.8" font-family="Times,serif" font-size="14.00" fill="#000000">...sharedCoreModules</text>
</g>
<!-- ...sharedCoreModules&#45;&gt;SharedCoreModule -->
<g id="edge42" class="edge">
<title>...sharedCoreModules&#45;&gt;SharedCoreModule</title>
<path fill="none" stroke="#000000" d="M468,-161.9733C468,-141.2328 468,-110 468,-110 468,-110 644.1668,-110 644.1668,-110"/>
<polygon fill="#000000" stroke="#000000" points="644.1668,-113.5001 654.1668,-110 644.1668,-106.5001 644.1668,-113.5001"/>
</g>
<!-- ...sharedModules -->
<g id="node37" class="node">
<title>...sharedModules</title>
<polygon fill="#8dd3c7" stroke="#000000" points="4153.0288,-122 4150.0288,-126 4129.0288,-126 4126.0288,-122 4040.9712,-122 4040.9712,-86 4153.0288,-86 4153.0288,-122"/>
<text text-anchor="middle" x="4097" y="-99.8" font-family="Times,serif" font-size="14.00" fill="#000000">...sharedModules</text>
</g>
<!-- ...sharedModules&#45;&gt;SharedModule -->
<g id="edge45" class="edge">
<title>...sharedModules&#45;&gt;SharedModule</title>
<path fill="none" stroke="#000000" d="M4113.4037,-122.0109C4113.4037,-122.0109 4113.4037,-151.855 4113.4037,-151.855"/>
<polygon fill="#000000" stroke="#000000" points="4109.9038,-151.8549 4113.4037,-161.855 4116.9038,-151.855 4109.9038,-151.8549"/>
</g>
<!-- ...sharedModules  -->
<g id="node39" class="node">
<title>...sharedModules </title>
<polygon fill="#fb8072" stroke="#000000" points="4155.5298,-266 4040.4702,-266 4040.4702,-230 4155.5298,-230 4155.5298,-266"/>
<text text-anchor="middle" x="4098" y="-243.8" font-family="Times,serif" font-size="14.00" fill="#000000">...sharedModules </text>
</g>
<!-- SharedModule&#45;&gt;...sharedModules  -->
<g id="edge46" class="edge">
<title>SharedModule&#45;&gt;...sharedModules </title>
<path fill="none" stroke="#000000" stroke-dasharray="5,2" d="M4097,-198.2228C4097,-198.2228 4097,-219.7269 4097,-219.7269"/>
<polygon fill="#000000" stroke="#000000" points="4093.5001,-219.7269 4097,-229.7269 4100.5001,-219.727 4093.5001,-219.7269"/>
</g>
<!-- TravelPointsRoutingModule&#45;&gt;RouterModule  -->
<g id="edge52" class="edge">
<title>TravelPointsRoutingModule&#45;&gt;RouterModule </title>
<path fill="none" stroke="#000000" stroke-dasharray="5,2" d="M4245.3555,-122.2015C4245.3555,-128.028 4245.3555,-133 4245.3555,-133 4245.3555,-133 3165.3457,-133 3165.3457,-133 3165.3457,-133 3165.3457,-151.963 3165.3457,-151.963"/>
<polygon fill="#000000" stroke="#000000" points="3161.8458,-151.963 3165.3457,-161.963 3168.8458,-151.963 3161.8458,-151.963"/>
</g>
<!-- TravelPointsRoutingModule&#45;&gt;TravelPointsModule -->
<g id="edge48" class="edge">
<title>TravelPointsRoutingModule&#45;&gt;TravelPointsModule</title>
<path fill="none" stroke="#000000" d="M4294.8156,-122.0109C4294.8156,-122.0109 4294.8156,-151.855 4294.8156,-151.855"/>
<polygon fill="#000000" stroke="#000000" points="4291.3157,-151.8549 4294.8156,-161.855 4298.3157,-151.855 4291.3157,-151.8549"/>
</g>
</g>
</svg>
