<?xml version="1.0" encoding="UTF-8" standalone="no"?>
<!DOCTYPE svg PUBLIC "-//W3C//DTD SVG 1.1//EN"
 "http://www.w3.org/Graphics/SVG/1.1/DTD/svg11.dtd">
<!-- Generated by graphviz version 2.40.1 (20161225.0304)
 -->
<!-- Title: dependencies Pages: 1 -->
<svg width="1505pt" height="284pt"
 viewBox="0.00 0.00 1505.00 284.00" xmlns="http://www.w3.org/2000/svg" xmlns:xlink="http://www.w3.org/1999/xlink">
<g id="graph0" class="graph" transform="scale(1 1) rotate(0) translate(4 280)">
<title>dependencies</title>
<polygon fill="#ffffff" stroke="transparent" points="-4,4 -4,-280 1501,-280 1501,4 -4,4"/>
<text text-anchor="start" x="727.5091" y="-42.4" font-family="sans-serif" font-weight="bold" font-size="14.00" fill="#000000">Legend</text>
<polygon fill="#ffffb3" stroke="transparent" points="514.5,-10 514.5,-30 534.5,-30 534.5,-10 514.5,-10"/>
<text text-anchor="start" x="538.129" y="-15.4" font-family="sans-serif" font-size="14.00" fill="#000000"> &#160;Declarations</text>
<polygon fill="#8dd3c7" stroke="transparent" points="627.5,-10 627.5,-30 647.5,-30 647.5,-10 627.5,-10"/>
<text text-anchor="start" x="651.2251" y="-15.4" font-family="sans-serif" font-size="14.00" fill="#000000"> &#160;Module</text>
<polygon fill="#80b1d3" stroke="transparent" points="713.5,-10 713.5,-30 733.5,-30 733.5,-10 713.5,-10"/>
<text text-anchor="start" x="737.2812" y="-15.4" font-family="sans-serif" font-size="14.00" fill="#000000"> &#160;Bootstrap</text>
<polygon fill="#fdb462" stroke="transparent" points="810.5,-10 810.5,-30 830.5,-30 830.5,-10 810.5,-10"/>
<text text-anchor="start" x="834.1732" y="-15.4" font-family="sans-serif" font-size="14.00" fill="#000000"> &#160;Providers</text>
<polygon fill="#fb8072" stroke="transparent" points="906.5,-10 906.5,-30 926.5,-30 926.5,-10 906.5,-10"/>
<text text-anchor="start" x="930.2258" y="-15.4" font-family="sans-serif" font-size="14.00" fill="#000000"> &#160;Exports</text>
<g id="clust1" class="cluster">
<title>cluster_AppModule</title>
<polygon fill="none" stroke="#000000" stroke-dasharray="1,5" points="8,-70 8,-268 1489,-268 1489,-70 8,-70"/>
</g>
<g id="clust2" class="cluster">
<title>cluster_AppModule_declarations</title>
<polygon fill="none" stroke="#000000" points="1359,-78 1359,-130 1481,-130 1481,-78 1359,-78"/>
</g>
<g id="clust4" class="cluster">
<title>cluster_AppModule_imports</title>
<polygon fill="none" stroke="#000000" points="16,-78 16,-130 1351,-130 1351,-78 16,-78"/>
</g>
<g id="clust6" class="cluster">
<title>cluster_AppModule_bootstrap</title>
<polygon fill="none" stroke="#000000" points="775,-208 775,-260 899,-260 899,-208 775,-208"/>
</g>
<!-- AppComponent -->
<g id="node1" class="node">
<title>AppComponent</title>
<polygon fill="#ffffb3" stroke="#000000" points="1472.9399,-122 1367.0601,-122 1367.0601,-86 1472.9399,-86 1472.9399,-122"/>
<text text-anchor="middle" x="1420" y="-99.8" font-family="Times,serif" font-size="14.00" fill="#000000">AppComponent</text>
</g>
<!-- AppModule -->
<g id="node2" class="node">
<title>AppModule</title>
<polygon fill="#8dd3c7" stroke="#000000" points="878.6571,-187 875.6571,-191 854.6571,-191 851.6571,-187 795.3429,-187 795.3429,-151 878.6571,-151 878.6571,-187"/>
<text text-anchor="middle" x="837" y="-164.8" font-family="Times,serif" font-size="14.00" fill="#000000">AppModule</text>
</g>
<!-- AppComponent&#45;&gt;AppModule -->
<g id="edge1" class="edge">
<title>AppComponent&#45;&gt;AppModule</title>
<path fill="none" stroke="#000000" d="M1420,-122.0109C1420,-144.4852 1420,-180 1420,-180 1420,-180 888.9279,-180 888.9279,-180"/>
<polygon fill="#000000" stroke="#000000" points="888.928,-176.5001 878.9279,-180 888.9279,-183.5001 888.928,-176.5001"/>
</g>
<!-- AppComponent  -->
<g id="node11" class="node">
<title>AppComponent </title>
<polygon fill="#80b1d3" stroke="#000000" points="891.439,-252 782.561,-252 782.561,-216 891.439,-216 891.439,-252"/>
<text text-anchor="middle" x="837" y="-229.8" font-family="Times,serif" font-size="14.00" fill="#000000">AppComponent </text>
</g>
<!-- AppModule&#45;&gt;AppComponent  -->
<g id="edge10" class="edge">
<title>AppModule&#45;&gt;AppComponent </title>
<path fill="none" stroke="#000000" stroke-dasharray="1,5" d="M837,-187.1061C837,-187.1061 837,-205.991 837,-205.991"/>
<polygon fill="#000000" stroke="#000000" points="833.5001,-205.9909 837,-215.991 840.5001,-205.991 833.5001,-205.9909"/>
</g>
<!-- BrowserModule -->
<g id="node3" class="node">
<title>BrowserModule</title>
<polygon fill="#8dd3c7" stroke="#000000" points="1343.4734,-122 1340.4734,-126 1319.4734,-126 1316.4734,-122 1236.5266,-122 1236.5266,-86 1343.4734,-86 1343.4734,-122"/>
<text text-anchor="middle" x="1290" y="-99.8" font-family="Times,serif" font-size="14.00" fill="#000000">BrowserModule</text>
</g>
<!-- BrowserModule&#45;&gt;AppModule -->
<g id="edge2" class="edge">
<title>BrowserModule&#45;&gt;AppModule</title>
<path fill="none" stroke="#000000" d="M1290,-122.1289C1290,-142.5724 1290,-173 1290,-173 1290,-173 888.8052,-173 888.8052,-173"/>
<polygon fill="#000000" stroke="#000000" points="888.8052,-169.5001 878.8052,-173 888.8051,-176.5001 888.8052,-169.5001"/>
</g>
<!-- AppRoutingModule -->
<g id="node4" class="node">
<title>AppRoutingModule</title>
<polygon fill="#8dd3c7" stroke="#000000" points="1218.2744,-122 1215.2744,-126 1194.2744,-126 1191.2744,-122 1089.7256,-122 1089.7256,-86 1218.2744,-86 1218.2744,-122"/>
<text text-anchor="middle" x="1154" y="-99.8" font-family="Times,serif" font-size="14.00" fill="#000000">AppRoutingModule</text>
</g>
<!-- AppRoutingModule&#45;&gt;AppModule -->
<g id="edge3" class="edge">
<title>AppRoutingModule&#45;&gt;AppModule</title>
<path fill="none" stroke="#000000" d="M1154,-122.2667C1154,-140.5552 1154,-166 1154,-166 1154,-166 888.7682,-166 888.7682,-166"/>
<polygon fill="#000000" stroke="#000000" points="888.7682,-162.5001 878.7682,-166 888.7682,-169.5001 888.7682,-162.5001"/>
</g>
<!-- BrowserAnimationsModule -->
<g id="node5" class="node">
<title>BrowserAnimationsModule</title>
<polygon fill="#8dd3c7" stroke="#000000" points="1071.3019,-122 1068.3019,-126 1047.3019,-126 1044.3019,-122 898.6981,-122 898.6981,-86 1071.3019,-86 1071.3019,-122"/>
<text text-anchor="middle" x="985" y="-99.8" font-family="Times,serif" font-size="14.00" fill="#000000">BrowserAnimationsModule</text>
</g>
<!-- BrowserAnimationsModule&#45;&gt;AppModule -->
<g id="edge4" class="edge">
<title>BrowserAnimationsModule&#45;&gt;AppModule</title>
<path fill="none" stroke="#000000" d="M985,-122.0091C985,-138.0494 985,-159 985,-159 985,-159 889.015,-159 889.015,-159"/>
<polygon fill="#000000" stroke="#000000" points="889.015,-155.5001 879.015,-159 889.0149,-162.5001 889.015,-155.5001"/>
</g>
<!-- CoreModule -->
<g id="node6" class="node">
<title>CoreModule</title>
<polygon fill="#8dd3c7" stroke="#000000" points="880.2619,-122 877.2619,-126 856.2619,-126 853.2619,-122 793.7381,-122 793.7381,-86 880.2619,-86 880.2619,-122"/>
<text text-anchor="middle" x="837" y="-99.8" font-family="Times,serif" font-size="14.00" fill="#000000">CoreModule</text>
</g>
<!-- CoreModule&#45;&gt;AppModule -->
<g id="edge5" class="edge">
<title>CoreModule&#45;&gt;AppModule</title>
<path fill="none" stroke="#000000" d="M837,-122.1061C837,-122.1061 837,-140.991 837,-140.991"/>
<polygon fill="#000000" stroke="#000000" points="833.5001,-140.9909 837,-150.991 840.5001,-140.991 833.5001,-140.9909"/>
</g>
<!-- QuicklinkModule -->
<g id="node7" class="node">
<title>QuicklinkModule</title>
<polygon fill="#8dd3c7" stroke="#000000" points="775.5437,-122 772.5437,-126 751.5437,-126 748.5437,-122 660.4563,-122 660.4563,-86 775.5437,-86 775.5437,-122"/>
<text text-anchor="middle" x="718" y="-99.8" font-family="Times,serif" font-size="14.00" fill="#000000">QuicklinkModule</text>
</g>
<!-- QuicklinkModule&#45;&gt;AppModule -->
<g id="edge6" class="edge">
<title>QuicklinkModule&#45;&gt;AppModule</title>
<path fill="none" stroke="#000000" d="M718,-122.0091C718,-138.0494 718,-159 718,-159 718,-159 785.0451,-159 785.0451,-159"/>
<polygon fill="#000000" stroke="#000000" points="785.0451,-162.5001 795.0451,-159 785.045,-155.5001 785.0451,-162.5001"/>
</g>
<!-- StoreModule.forRoot(args) -->
<g id="node8" class="node">
<title>StoreModule.forRoot(args)</title>
<polygon fill="#8dd3c7" stroke="#000000" points="642.2877,-122 639.2877,-126 618.2877,-126 615.2877,-122 473.7123,-122 473.7123,-86 642.2877,-86 642.2877,-122"/>
<text text-anchor="middle" x="558" y="-99.8" font-family="Times,serif" font-size="14.00" fill="#000000">StoreModule.forRoot(args)</text>
</g>
<!-- StoreModule.forRoot(args)&#45;&gt;AppModule -->
<g id="edge7" class="edge">
<title>StoreModule.forRoot(args)&#45;&gt;AppModule</title>
<path fill="none" stroke="#000000" d="M558,-122.2667C558,-140.5552 558,-166 558,-166 558,-166 785.2309,-166 785.2309,-166"/>
<polygon fill="#000000" stroke="#000000" points="785.2309,-169.5001 795.2309,-166 785.2308,-162.5001 785.2309,-169.5001"/>
</g>
<!-- StoreDevtoolsModule.instrument(args) -->
<g id="node9" class="node">
<title>StoreDevtoolsModule.instrument(args)</title>
<polygon fill="#8dd3c7" stroke="#000000" points="455.6686,-122 452.6686,-126 431.6686,-126 428.6686,-122 220.3314,-122 220.3314,-86 455.6686,-86 455.6686,-122"/>
<text text-anchor="middle" x="338" y="-99.8" font-family="Times,serif" font-size="14.00" fill="#000000">StoreDevtoolsModule.instrument(args)</text>
</g>
<!-- StoreDevtoolsModule.instrument(args)&#45;&gt;AppModule -->
<g id="edge8" class="edge">
<title>StoreDevtoolsModule.instrument(args)&#45;&gt;AppModule</title>
<path fill="none" stroke="#000000" d="M338,-122.1289C338,-142.5724 338,-173 338,-173 338,-173 785.3138,-173 785.3138,-173"/>
<polygon fill="#000000" stroke="#000000" points="785.3139,-176.5001 795.3138,-173 785.3138,-169.5001 785.3139,-176.5001"/>
</g>
<!-- EffectsModule.forRoot(args) -->
<g id="node10" class="node">
<title>EffectsModule.forRoot(args)</title>
<polygon fill="#8dd3c7" stroke="#000000" points="202.3774,-122 199.3774,-126 178.3774,-126 175.3774,-122 23.6226,-122 23.6226,-86 202.3774,-86 202.3774,-122"/>
<text text-anchor="middle" x="113" y="-99.8" font-family="Times,serif" font-size="14.00" fill="#000000">EffectsModule.forRoot(args)</text>
</g>
<!-- EffectsModule.forRoot(args)&#45;&gt;AppModule -->
<g id="edge9" class="edge">
<title>EffectsModule.forRoot(args)&#45;&gt;AppModule</title>
<path fill="none" stroke="#000000" d="M113,-122.0109C113,-144.4852 113,-180 113,-180 113,-180 785.2101,-180 785.2101,-180"/>
<polygon fill="#000000" stroke="#000000" points="785.2102,-183.5001 795.2101,-180 785.2101,-176.5001 785.2102,-183.5001"/>
</g>
</g>
</svg>
