<?xml version="1.0" encoding="UTF-8" standalone="no"?>
<!DOCTYPE svg PUBLIC "-//W3C//DTD SVG 1.1//EN"
 "http://www.w3.org/Graphics/SVG/1.1/DTD/svg11.dtd">
<!-- Generated by graphviz version 2.40.1 (20161225.0304)
 -->
<!-- Title: dependencies Pages: 1 -->
<svg width="504pt" height="211pt"
 viewBox="0.00 0.00 504.00 211.00" xmlns="http://www.w3.org/2000/svg" xmlns:xlink="http://www.w3.org/1999/xlink">
<g id="graph0" class="graph" transform="scale(1 1) rotate(0) translate(4 207)">
<title>dependencies</title>
<polygon fill="#ffffff" stroke="transparent" points="-4,4 -4,-207 500,-207 500,4 -4,4"/>
<text text-anchor="start" x="227.0091" y="-42.4" font-family="sans-serif" font-weight="bold" font-size="14.00" fill="#000000">Legend</text>
<polygon fill="#ffffb3" stroke="transparent" points="14,-10 14,-30 34,-30 34,-10 14,-10"/>
<text text-anchor="start" x="37.629" y="-15.4" font-family="sans-serif" font-size="14.00" fill="#000000"> &#160;Declarations</text>
<polygon fill="#8dd3c7" stroke="transparent" points="127,-10 127,-30 147,-30 147,-10 127,-10"/>
<text text-anchor="start" x="150.7251" y="-15.4" font-family="sans-serif" font-size="14.00" fill="#000000"> &#160;Module</text>
<polygon fill="#80b1d3" stroke="transparent" points="213,-10 213,-30 233,-30 233,-10 213,-10"/>
<text text-anchor="start" x="236.7812" y="-15.4" font-family="sans-serif" font-size="14.00" fill="#000000"> &#160;Bootstrap</text>
<polygon fill="#fdb462" stroke="transparent" points="310,-10 310,-30 330,-30 330,-10 310,-10"/>
<text text-anchor="start" x="333.6732" y="-15.4" font-family="sans-serif" font-size="14.00" fill="#000000"> &#160;Providers</text>
<polygon fill="#fb8072" stroke="transparent" points="406,-10 406,-30 426,-30 426,-10 406,-10"/>
<text text-anchor="start" x="429.7258" y="-15.4" font-family="sans-serif" font-size="14.00" fill="#000000"> &#160;Exports</text>
<g id="clust1" class="cluster">
<title>cluster_AdvertisementModule</title>
<polygon fill="none" stroke="#000000" stroke-dasharray="1,5" points="15.5,-70 15.5,-195 480.5,-195 480.5,-70 15.5,-70"/>
</g>
<g id="clust3" class="cluster">
<title>cluster_AdvertisementModule_imports</title>
<polygon fill="none" stroke="#000000" points="23.5,-78 23.5,-130 472.5,-130 472.5,-78 23.5,-78"/>
</g>
<!-- CommonModule -->
<g id="node1" class="node">
<title>CommonModule</title>
<polygon fill="#8dd3c7" stroke="#000000" points="464.1681,-122 461.1681,-126 440.1681,-126 437.1681,-122 352.8319,-122 352.8319,-86 464.1681,-86 464.1681,-122"/>
<text text-anchor="middle" x="408.5" y="-99.8" font-family="Times,serif" font-size="14.00" fill="#000000">CommonModule</text>
</g>
<!-- AdvertisementModule -->
<g id="node4" class="node">
<title>AdvertisementModule</title>
<polygon fill="#8dd3c7" stroke="#000000" points="312.4678,-187 309.4678,-191 288.4678,-191 285.4678,-187 170.5322,-187 170.5322,-151 312.4678,-151 312.4678,-187"/>
<text text-anchor="middle" x="241.5" y="-164.8" font-family="Times,serif" font-size="14.00" fill="#000000">AdvertisementModule</text>
</g>
<!-- CommonModule&#45;&gt;AdvertisementModule -->
<g id="edge1" class="edge">
<title>CommonModule&#45;&gt;AdvertisementModule</title>
<path fill="none" stroke="#000000" d="M408.5,-122.1061C408.5,-141.3391 408.5,-169 408.5,-169 408.5,-169 322.8074,-169 322.8074,-169"/>
<polygon fill="#000000" stroke="#000000" points="322.8075,-165.5001 312.8074,-169 322.8074,-172.5001 322.8075,-165.5001"/>
</g>
<!-- AdvertisementRoutingModule -->
<g id="node2" class="node">
<title>AdvertisementRoutingModule</title>
<polygon fill="#8dd3c7" stroke="#000000" points="335.0856,-122 332.0856,-126 311.0856,-126 308.0856,-122 147.9144,-122 147.9144,-86 335.0856,-86 335.0856,-122"/>
<text text-anchor="middle" x="241.5" y="-99.8" font-family="Times,serif" font-size="14.00" fill="#000000">AdvertisementRoutingModule</text>
</g>
<!-- AdvertisementRoutingModule&#45;&gt;AdvertisementModule -->
<g id="edge2" class="edge">
<title>AdvertisementRoutingModule&#45;&gt;AdvertisementModule</title>
<path fill="none" stroke="#000000" d="M241.5,-122.1061C241.5,-122.1061 241.5,-140.991 241.5,-140.991"/>
<polygon fill="#000000" stroke="#000000" points="238.0001,-140.9909 241.5,-150.991 245.0001,-140.991 238.0001,-140.9909"/>
</g>
<!-- SharedModule -->
<g id="node3" class="node">
<title>SharedModule</title>
<polygon fill="#8dd3c7" stroke="#000000" points="129.9231,-122 126.9231,-126 105.9231,-126 102.9231,-122 31.0769,-122 31.0769,-86 129.9231,-86 129.9231,-122"/>
<text text-anchor="middle" x="80.5" y="-99.8" font-family="Times,serif" font-size="14.00" fill="#000000">SharedModule</text>
</g>
<!-- SharedModule&#45;&gt;AdvertisementModule -->
<g id="edge3" class="edge">
<title>SharedModule&#45;&gt;AdvertisementModule</title>
<path fill="none" stroke="#000000" d="M80.5,-122.1061C80.5,-141.3391 80.5,-169 80.5,-169 80.5,-169 160.4144,-169 160.4144,-169"/>
<polygon fill="#000000" stroke="#000000" points="160.4144,-172.5001 170.4144,-169 160.4144,-165.5001 160.4144,-172.5001"/>
</g>
</g>
</svg>
