<?xml version="1.0" encoding="UTF-8" standalone="no"?>
<!DOCTYPE svg PUBLIC "-//W3C//DTD SVG 1.1//EN"
 "http://www.w3.org/Graphics/SVG/1.1/DTD/svg11.dtd">
<!-- Generated by graphviz version 2.40.1 (20161225.0304)
 -->
<!-- Title: dependencies Pages: 1 -->
<svg width="640pt" height="211pt"
 viewBox="0.00 0.00 640.00 211.00" xmlns="http://www.w3.org/2000/svg" xmlns:xlink="http://www.w3.org/1999/xlink">
<g id="graph0" class="graph" transform="scale(1 1) rotate(0) translate(4 207)">
<title>dependencies</title>
<polygon fill="#ffffff" stroke="transparent" points="-4,4 -4,-207 636,-207 636,4 -4,4"/>
<text text-anchor="start" x="295.0091" y="-42.4" font-family="sans-serif" font-weight="bold" font-size="14.00" fill="#000000">Legend</text>
<polygon fill="#ffffb3" stroke="transparent" points="82,-10 82,-30 102,-30 102,-10 82,-10"/>
<text text-anchor="start" x="105.629" y="-15.4" font-family="sans-serif" font-size="14.00" fill="#000000"> &#160;Declarations</text>
<polygon fill="#8dd3c7" stroke="transparent" points="195,-10 195,-30 215,-30 215,-10 195,-10"/>
<text text-anchor="start" x="218.7251" y="-15.4" font-family="sans-serif" font-size="14.00" fill="#000000"> &#160;Module</text>
<polygon fill="#80b1d3" stroke="transparent" points="281,-10 281,-30 301,-30 301,-10 281,-10"/>
<text text-anchor="start" x="304.7812" y="-15.4" font-family="sans-serif" font-size="14.00" fill="#000000"> &#160;Bootstrap</text>
<polygon fill="#fdb462" stroke="transparent" points="378,-10 378,-30 398,-30 398,-10 378,-10"/>
<text text-anchor="start" x="401.6732" y="-15.4" font-family="sans-serif" font-size="14.00" fill="#000000"> &#160;Providers</text>
<polygon fill="#fb8072" stroke="transparent" points="474,-10 474,-30 494,-30 494,-10 474,-10"/>
<text text-anchor="start" x="497.7258" y="-15.4" font-family="sans-serif" font-size="14.00" fill="#000000"> &#160;Exports</text>
<g id="clust1" class="cluster">
<title>cluster_SearchModule</title>
<polygon fill="none" stroke="#000000" stroke-dasharray="1,5" points="8,-70 8,-195 624,-195 624,-70 8,-70"/>
</g>
<g id="clust2" class="cluster">
<title>cluster_SearchModule_declarations</title>
<polygon fill="none" stroke="#000000" points="312,-78 312,-130 616,-130 616,-78 312,-78"/>
</g>
<g id="clust5" class="cluster">
<title>cluster_SearchModule_imports</title>
<polygon fill="none" stroke="#000000" points="16,-78 16,-130 304,-130 304,-78 16,-78"/>
</g>
<!-- SearchComponent -->
<g id="node1" class="node">
<title>SearchComponent</title>
<polygon fill="#ffffb3" stroke="#000000" points="607.9201,-122 488.0799,-122 488.0799,-86 607.9201,-86 607.9201,-122"/>
<text text-anchor="middle" x="548" y="-99.8" font-family="Times,serif" font-size="14.00" fill="#000000">SearchComponent</text>
</g>
<!-- SearchModule -->
<g id="node3" class="node">
<title>SearchModule</title>
<polygon fill="#8dd3c7" stroke="#000000" points="365.6375,-187 362.6375,-191 341.6375,-191 338.6375,-187 268.3625,-187 268.3625,-151 365.6375,-151 365.6375,-187"/>
<text text-anchor="middle" x="317" y="-164.8" font-family="Times,serif" font-size="14.00" fill="#000000">SearchModule</text>
</g>
<!-- SearchComponent&#45;&gt;SearchModule -->
<g id="edge1" class="edge">
<title>SearchComponent&#45;&gt;SearchModule</title>
<path fill="none" stroke="#000000" d="M548,-122.1061C548,-141.3391 548,-169 548,-169 548,-169 375.7069,-169 375.7069,-169"/>
<polygon fill="#000000" stroke="#000000" points="375.7069,-165.5001 365.7069,-169 375.7069,-172.5001 375.7069,-165.5001"/>
</g>
<!-- SearchFormComponent -->
<g id="node2" class="node">
<title>SearchFormComponent</title>
<polygon fill="#ffffb3" stroke="#000000" points="469.7534,-122 320.2466,-122 320.2466,-86 469.7534,-86 469.7534,-122"/>
<text text-anchor="middle" x="395" y="-99.8" font-family="Times,serif" font-size="14.00" fill="#000000">SearchFormComponent</text>
</g>
<!-- SearchFormComponent&#45;&gt;SearchModule -->
<g id="edge2" class="edge">
<title>SearchFormComponent&#45;&gt;SearchModule</title>
<path fill="none" stroke="#000000" d="M342.9709,-122.1061C342.9709,-122.1061 342.9709,-140.991 342.9709,-140.991"/>
<polygon fill="#000000" stroke="#000000" points="339.471,-140.9909 342.9709,-150.991 346.471,-140.991 339.471,-140.9909"/>
</g>
<!-- CommonModule -->
<g id="node4" class="node">
<title>CommonModule</title>
<polygon fill="#8dd3c7" stroke="#000000" points="295.6681,-122 292.6681,-126 271.6681,-126 268.6681,-122 184.3319,-122 184.3319,-86 295.6681,-86 295.6681,-122"/>
<text text-anchor="middle" x="240" y="-99.8" font-family="Times,serif" font-size="14.00" fill="#000000">CommonModule</text>
</g>
<!-- CommonModule&#45;&gt;SearchModule -->
<g id="edge3" class="edge">
<title>CommonModule&#45;&gt;SearchModule</title>
<path fill="none" stroke="#000000" d="M282.0077,-122.1061C282.0077,-122.1061 282.0077,-140.991 282.0077,-140.991"/>
<polygon fill="#000000" stroke="#000000" points="278.5078,-140.9909 282.0077,-150.991 285.5078,-140.991 278.5078,-140.9909"/>
</g>
<!-- SearchRoutingModule -->
<g id="node5" class="node">
<title>SearchRoutingModule</title>
<polygon fill="#8dd3c7" stroke="#000000" points="166.2548,-122 163.2548,-126 142.2548,-126 139.2548,-122 23.7452,-122 23.7452,-86 166.2548,-86 166.2548,-122"/>
<text text-anchor="middle" x="95" y="-99.8" font-family="Times,serif" font-size="14.00" fill="#000000">SearchRoutingModule</text>
</g>
<!-- SearchRoutingModule&#45;&gt;SearchModule -->
<g id="edge4" class="edge">
<title>SearchRoutingModule&#45;&gt;SearchModule</title>
<path fill="none" stroke="#000000" d="M95,-122.1061C95,-141.3391 95,-169 95,-169 95,-169 258.2812,-169 258.2812,-169"/>
<polygon fill="#000000" stroke="#000000" points="258.2812,-172.5001 268.2812,-169 258.2811,-165.5001 258.2812,-172.5001"/>
</g>
</g>
</svg>
