<?xml version="1.0" encoding="UTF-8" standalone="no"?>
<!DOCTYPE svg PUBLIC "-//W3C//DTD SVG 1.1//EN"
 "http://www.w3.org/Graphics/SVG/1.1/DTD/svg11.dtd">
<!-- Generated by graphviz version 2.40.1 (20161225.0304)
 -->
<!-- Title: dependencies Pages: 1 -->
<svg width="504pt" height="284pt"
 viewBox="0.00 0.00 504.00 284.00" xmlns="http://www.w3.org/2000/svg" xmlns:xlink="http://www.w3.org/1999/xlink">
<g id="graph0" class="graph" transform="scale(1 1) rotate(0) translate(4 280)">
<title>dependencies</title>
<polygon fill="#ffffff" stroke="transparent" points="-4,4 -4,-280 500,-280 500,4 -4,4"/>
<text text-anchor="start" x="227.0091" y="-42.4" font-family="sans-serif" font-weight="bold" font-size="14.00" fill="#000000">Legend</text>
<polygon fill="#ffffb3" stroke="transparent" points="14,-10 14,-30 34,-30 34,-10 14,-10"/>
<text text-anchor="start" x="37.629" y="-15.4" font-family="sans-serif" font-size="14.00" fill="#000000"> &#160;Declarations</text>
<polygon fill="#8dd3c7" stroke="transparent" points="127,-10 127,-30 147,-30 147,-10 127,-10"/>
<text text-anchor="start" x="150.7251" y="-15.4" font-family="sans-serif" font-size="14.00" fill="#000000"> &#160;Module</text>
<polygon fill="#80b1d3" stroke="transparent" points="213,-10 213,-30 233,-30 233,-10 213,-10"/>
<text text-anchor="start" x="236.7812" y="-15.4" font-family="sans-serif" font-size="14.00" fill="#000000"> &#160;Bootstrap</text>
<polygon fill="#fdb462" stroke="transparent" points="310,-10 310,-30 330,-30 330,-10 310,-10"/>
<text text-anchor="start" x="333.6732" y="-15.4" font-family="sans-serif" font-size="14.00" fill="#000000"> &#160;Providers</text>
<polygon fill="#fb8072" stroke="transparent" points="406,-10 406,-30 426,-30 426,-10 406,-10"/>
<text text-anchor="start" x="429.7258" y="-15.4" font-family="sans-serif" font-size="14.00" fill="#000000"> &#160;Exports</text>
<g id="clust1" class="cluster">
<title>cluster_CoreAngularMaterialModule</title>
<polygon fill="none" stroke="#000000" stroke-dasharray="1,5" points="71,-70 71,-268 425,-268 425,-70 71,-70"/>
</g>
<g id="clust3" class="cluster">
<title>cluster_CoreAngularMaterialModule_imports</title>
<polygon fill="none" stroke="#000000" points="79,-78 79,-130 417,-130 417,-78 79,-78"/>
</g>
<g id="clust4" class="cluster">
<title>cluster_CoreAngularMaterialModule_exports</title>
<polygon fill="none" stroke="#000000" points="142,-208 142,-260 354,-260 354,-208 142,-208"/>
</g>
<!-- CommonModule -->
<g id="node1" class="node">
<title>CommonModule</title>
<polygon fill="#8dd3c7" stroke="#000000" points="408.6681,-122 405.6681,-126 384.6681,-126 381.6681,-122 297.3319,-122 297.3319,-86 408.6681,-86 408.6681,-122"/>
<text text-anchor="middle" x="353" y="-99.8" font-family="Times,serif" font-size="14.00" fill="#000000">CommonModule</text>
</g>
<!-- CoreAngularMaterialModule -->
<g id="node3" class="node">
<title>CoreAngularMaterialModule</title>
<polygon fill="#8dd3c7" stroke="#000000" points="338.0548,-187 335.0548,-191 314.0548,-191 311.0548,-187 157.9452,-187 157.9452,-151 338.0548,-151 338.0548,-187"/>
<text text-anchor="middle" x="248" y="-164.8" font-family="Times,serif" font-size="14.00" fill="#000000">CoreAngularMaterialModule</text>
</g>
<!-- CommonModule&#45;&gt;CoreAngularMaterialModule -->
<g id="edge1" class="edge">
<title>CommonModule&#45;&gt;CoreAngularMaterialModule</title>
<path fill="none" stroke="#000000" d="M317.5968,-122.1061C317.5968,-122.1061 317.5968,-140.991 317.5968,-140.991"/>
<polygon fill="#000000" stroke="#000000" points="314.0969,-140.9909 317.5968,-150.991 321.0969,-140.991 314.0969,-140.9909"/>
</g>
<!-- ...coreAngularMaterialModules -->
<g id="node2" class="node">
<title>...coreAngularMaterialModules</title>
<polygon fill="#8dd3c7" stroke="#000000" points="279.3774,-122 276.3774,-126 255.3774,-126 252.3774,-122 86.6226,-122 86.6226,-86 279.3774,-86 279.3774,-122"/>
<text text-anchor="middle" x="183" y="-99.8" font-family="Times,serif" font-size="14.00" fill="#000000">...coreAngularMaterialModules</text>
</g>
<!-- ...coreAngularMaterialModules&#45;&gt;CoreAngularMaterialModule -->
<g id="edge2" class="edge">
<title>...coreAngularMaterialModules&#45;&gt;CoreAngularMaterialModule</title>
<path fill="none" stroke="#000000" d="M218.7057,-122.1061C218.7057,-122.1061 218.7057,-140.991 218.7057,-140.991"/>
<polygon fill="#000000" stroke="#000000" points="215.2057,-140.9909 218.7057,-150.991 222.2057,-140.991 215.2057,-140.9909"/>
</g>
<!-- ...coreAngularMaterialModules  -->
<g id="node4" class="node">
<title>...coreAngularMaterialModules </title>
<polygon fill="#fb8072" stroke="#000000" points="346.3778,-252 149.6222,-252 149.6222,-216 346.3778,-216 346.3778,-252"/>
<text text-anchor="middle" x="248" y="-229.8" font-family="Times,serif" font-size="14.00" fill="#000000">...coreAngularMaterialModules </text>
</g>
<!-- CoreAngularMaterialModule&#45;&gt;...coreAngularMaterialModules  -->
<g id="edge3" class="edge">
<title>CoreAngularMaterialModule&#45;&gt;...coreAngularMaterialModules </title>
<path fill="none" stroke="#000000" stroke-dasharray="5,2" d="M248,-187.1061C248,-187.1061 248,-205.991 248,-205.991"/>
<polygon fill="#000000" stroke="#000000" points="244.5001,-205.9909 248,-215.991 251.5001,-205.991 244.5001,-205.9909"/>
</g>
</g>
</svg>
